G75*
G70*
%OFA0B0*%
%FSLAX24Y24*%
%IPPOS*%
%LPD*%
%AMOC8*
5,1,8,0,0,1.08239X$1,22.5*
%
%ADD10C,0.0000*%
%ADD11R,0.0635X0.0635*%
%ADD12R,0.1064X0.0395*%
%ADD13R,0.0737X0.0395*%
%ADD14R,0.0395X0.0737*%
%ADD15R,0.0474X0.0513*%
%ADD16R,0.0513X0.0474*%
%ADD17R,0.0513X0.0395*%
%ADD18R,0.0552X0.0395*%
%ADD19R,0.0316X0.0237*%
%ADD20R,0.0710X0.1025*%
%ADD21R,0.0946X0.0316*%
%ADD22C,0.0640*%
D10*
X002867Y000100D02*
X029367Y000100D01*
X029605Y000106D01*
X029842Y000123D01*
X030079Y000151D01*
X030313Y000190D01*
X030546Y000241D01*
X030776Y000303D01*
X031002Y000375D01*
X031225Y000458D01*
X031444Y000552D01*
X031658Y000656D01*
X031867Y000770D01*
X032070Y000894D01*
X032267Y001027D01*
X032458Y001170D01*
X032641Y001321D01*
X032817Y001481D01*
X032986Y001650D01*
X033146Y001826D01*
X033297Y002009D01*
X033440Y002200D01*
X033573Y002397D01*
X033697Y002600D01*
X033811Y002809D01*
X033915Y003023D01*
X034009Y003242D01*
X034092Y003465D01*
X034164Y003691D01*
X034226Y003921D01*
X034277Y004154D01*
X034316Y004388D01*
X034344Y004625D01*
X034361Y004862D01*
X034367Y005100D01*
X034367Y016600D01*
X034361Y016838D01*
X034344Y017075D01*
X034316Y017312D01*
X034277Y017546D01*
X034226Y017779D01*
X034164Y018009D01*
X034092Y018235D01*
X034009Y018458D01*
X033915Y018677D01*
X033811Y018891D01*
X033697Y019100D01*
X033573Y019303D01*
X033440Y019500D01*
X033297Y019691D01*
X033146Y019874D01*
X032986Y020050D01*
X032817Y020219D01*
X032641Y020379D01*
X032458Y020530D01*
X032267Y020673D01*
X032070Y020806D01*
X031867Y020930D01*
X031658Y021044D01*
X031444Y021148D01*
X031225Y021242D01*
X031002Y021325D01*
X030776Y021397D01*
X030546Y021459D01*
X030313Y021510D01*
X030079Y021549D01*
X029842Y021577D01*
X029605Y021594D01*
X029367Y021600D01*
X002117Y021600D01*
X002117Y015350D01*
X008367Y015350D01*
X008367Y008350D01*
X000367Y008350D01*
X000367Y002600D01*
X000370Y002481D01*
X000378Y002362D01*
X000392Y002244D01*
X000412Y002127D01*
X000437Y002011D01*
X000468Y001896D01*
X000504Y001782D01*
X000546Y001671D01*
X000593Y001561D01*
X000645Y001454D01*
X000702Y001350D01*
X000764Y001248D01*
X000831Y001150D01*
X000902Y001055D01*
X000978Y000963D01*
X001058Y000875D01*
X001142Y000791D01*
X001230Y000711D01*
X001322Y000635D01*
X001417Y000564D01*
X001515Y000497D01*
X001617Y000435D01*
X001721Y000378D01*
X001828Y000326D01*
X001938Y000279D01*
X002049Y000237D01*
X002163Y000201D01*
X002278Y000170D01*
X002394Y000145D01*
X002511Y000125D01*
X002629Y000111D01*
X002748Y000103D01*
X002867Y000100D01*
X015117Y010600D02*
X015117Y017100D01*
X021617Y017100D01*
X021617Y010600D01*
X015117Y010600D01*
D11*
X015117Y002350D03*
X016117Y002350D03*
X017117Y002350D03*
X018117Y002350D03*
X019117Y002350D03*
X020117Y002350D03*
X021117Y002350D03*
X022117Y002350D03*
X023117Y002350D03*
X024117Y002350D03*
X025117Y002350D03*
X026117Y002350D03*
X027117Y002350D03*
X028117Y002350D03*
X029117Y002350D03*
X029117Y001350D03*
X028117Y001350D03*
X027117Y001350D03*
X026117Y001350D03*
X025117Y001350D03*
X024117Y001350D03*
X023117Y001350D03*
X022117Y001350D03*
X021117Y001350D03*
X020117Y001350D03*
X019117Y001350D03*
X018117Y001350D03*
X017117Y001350D03*
X016117Y001350D03*
X015117Y001350D03*
X014117Y001350D03*
X013117Y001350D03*
X012117Y001350D03*
X011117Y001350D03*
X010117Y001350D03*
X009117Y001350D03*
X008117Y001350D03*
X007117Y001350D03*
X007117Y002350D03*
X008117Y002350D03*
X009117Y002350D03*
X010117Y002350D03*
X011117Y002350D03*
X012117Y002350D03*
X013117Y002350D03*
X014117Y002350D03*
X014117Y019350D03*
X013117Y019350D03*
X012117Y019350D03*
X011117Y019350D03*
X010117Y019350D03*
X009117Y019350D03*
X008117Y019350D03*
X007117Y019350D03*
X007117Y020350D03*
X008117Y020350D03*
X009117Y020350D03*
X010117Y020350D03*
X011117Y020350D03*
X012117Y020350D03*
X013117Y020350D03*
X014117Y020350D03*
X015117Y020350D03*
X016117Y020350D03*
X017117Y020350D03*
X018117Y020350D03*
X019117Y020350D03*
X020117Y020350D03*
X021117Y020350D03*
X022117Y020350D03*
X023117Y020350D03*
X024117Y020350D03*
X025117Y020350D03*
X026117Y020350D03*
X027117Y020350D03*
X028117Y020350D03*
X029117Y020350D03*
X029117Y019350D03*
X028117Y019350D03*
X027117Y019350D03*
X026117Y019350D03*
X025117Y019350D03*
X024117Y019350D03*
X023117Y019350D03*
X022117Y019350D03*
X021117Y019350D03*
X020117Y019350D03*
X019117Y019350D03*
X018117Y019350D03*
X017117Y019350D03*
X016117Y019350D03*
X015117Y019350D03*
D12*
X029967Y008100D03*
D13*
X031430Y008100D03*
D14*
X031117Y007287D03*
X030617Y007287D03*
X030117Y007287D03*
X030117Y008913D03*
X030617Y008913D03*
X031117Y008913D03*
D15*
X032367Y008435D03*
X032367Y007765D03*
D16*
X022134Y005596D03*
X017201Y003850D03*
X016532Y003850D03*
X016282Y004850D03*
X016951Y004850D03*
D17*
X023603Y005344D03*
X023603Y005856D03*
D18*
X023117Y004454D03*
X023117Y003746D03*
D19*
X017418Y007456D03*
X017418Y007850D03*
X017418Y008244D03*
X016315Y008244D03*
X016315Y007850D03*
X016315Y007456D03*
D20*
X016867Y007850D03*
D21*
X008890Y006600D03*
X008890Y006100D03*
X008890Y005600D03*
X008890Y005100D03*
X006843Y005100D03*
X006843Y005600D03*
X006843Y006100D03*
X006843Y006600D03*
D22*
X004647Y006100D02*
X004087Y006100D01*
X004087Y005100D02*
X004647Y005100D01*
X001647Y005100D02*
X001087Y005100D01*
X001087Y006100D02*
X001647Y006100D01*
M02*
