%
M48
M72
T01C0.0120
T02C0.0315
T03C0.0320
%
T01
X9520Y4410
X15640Y2250
X13240Y7410
T02
X12850Y6850
X11850Y6850
X10850Y6850
X9850Y6850
X8850Y6850
X7850Y6850
X6850Y6850
X6850Y5850
X7850Y5850
X8850Y5850
X9850Y5850
X10850Y5850
X11850Y5850
X12850Y5850
X13850Y5850
X14850Y5850
X15850Y5850
X16850Y5850
X17850Y5850
X18850Y5850
X19850Y5850
X20850Y5850
X21850Y5850
X22850Y5850
X23850Y5850
X24850Y5850
X25850Y5850
X26850Y5850
X27850Y5850
X28850Y5850
X28850Y6850
X27850Y6850
X26850Y6850
X25850Y6850
X24850Y6850
X23850Y6850
X22850Y6850
X21850Y6850
X20850Y6850
X19850Y6850
X18850Y6850
X17850Y6850
X16850Y6850
X15850Y6850
X14850Y6850
X13850Y6850
T03
X4850Y9600
X4850Y10600
X1850Y10600
X1850Y9600
M30
