G75*
G70*
%OFA0B0*%
%FSLAX24Y24*%
%IPPOS*%
%LPD*%
%AMOC8*
5,1,8,0,0,1.08239X$1,22.5*
%
%ADD10C,0.0000*%
%ADD11R,0.0555X0.0555*%
%ADD12C,0.0560*%
%ADD13C,0.0160*%
%ADD14C,0.0400*%
%ADD15C,0.0240*%
D10*
X002867Y000100D02*
X029367Y000100D01*
X029605Y000106D01*
X029842Y000123D01*
X030079Y000151D01*
X030313Y000190D01*
X030546Y000241D01*
X030776Y000303D01*
X031002Y000375D01*
X031225Y000458D01*
X031444Y000552D01*
X031658Y000656D01*
X031867Y000770D01*
X032070Y000894D01*
X032267Y001027D01*
X032458Y001170D01*
X032641Y001321D01*
X032817Y001481D01*
X032986Y001650D01*
X033146Y001826D01*
X033297Y002009D01*
X033440Y002200D01*
X033573Y002397D01*
X033697Y002600D01*
X033811Y002809D01*
X033915Y003023D01*
X034009Y003242D01*
X034092Y003465D01*
X034164Y003691D01*
X034226Y003921D01*
X034277Y004154D01*
X034316Y004388D01*
X034344Y004625D01*
X034361Y004862D01*
X034367Y005100D01*
X034367Y016600D01*
X034361Y016838D01*
X034344Y017075D01*
X034316Y017312D01*
X034277Y017546D01*
X034226Y017779D01*
X034164Y018009D01*
X034092Y018235D01*
X034009Y018458D01*
X033915Y018677D01*
X033811Y018891D01*
X033697Y019100D01*
X033573Y019303D01*
X033440Y019500D01*
X033297Y019691D01*
X033146Y019874D01*
X032986Y020050D01*
X032817Y020219D01*
X032641Y020379D01*
X032458Y020530D01*
X032267Y020673D01*
X032070Y020806D01*
X031867Y020930D01*
X031658Y021044D01*
X031444Y021148D01*
X031225Y021242D01*
X031002Y021325D01*
X030776Y021397D01*
X030546Y021459D01*
X030313Y021510D01*
X030079Y021549D01*
X029842Y021577D01*
X029605Y021594D01*
X029367Y021600D01*
X002117Y021600D01*
X002117Y015350D01*
X008367Y015350D01*
X008367Y008350D01*
X000367Y008350D01*
X000367Y002600D01*
X000370Y002481D01*
X000378Y002362D01*
X000392Y002244D01*
X000412Y002127D01*
X000437Y002011D01*
X000468Y001896D01*
X000504Y001782D01*
X000546Y001671D01*
X000593Y001561D01*
X000645Y001454D01*
X000702Y001350D01*
X000764Y001248D01*
X000831Y001150D01*
X000902Y001055D01*
X000978Y000963D01*
X001058Y000875D01*
X001142Y000791D01*
X001230Y000711D01*
X001322Y000635D01*
X001417Y000564D01*
X001515Y000497D01*
X001617Y000435D01*
X001721Y000378D01*
X001828Y000326D01*
X001938Y000279D01*
X002049Y000237D01*
X002163Y000201D01*
X002278Y000170D01*
X002394Y000145D01*
X002511Y000125D01*
X002629Y000111D01*
X002748Y000103D01*
X002867Y000100D01*
X015117Y010600D02*
X015117Y017100D01*
X021617Y017100D01*
X021617Y010600D01*
X015117Y010600D01*
D11*
X015117Y002350D03*
X016117Y002350D03*
X017117Y002350D03*
X018117Y002350D03*
X019117Y002350D03*
X020117Y002350D03*
X021117Y002350D03*
X022117Y002350D03*
X023117Y002350D03*
X024117Y002350D03*
X025117Y002350D03*
X026117Y002350D03*
X027117Y002350D03*
X028117Y002350D03*
X029117Y002350D03*
X029117Y001350D03*
X028117Y001350D03*
X027117Y001350D03*
X026117Y001350D03*
X025117Y001350D03*
X024117Y001350D03*
X023117Y001350D03*
X022117Y001350D03*
X021117Y001350D03*
X020117Y001350D03*
X019117Y001350D03*
X018117Y001350D03*
X017117Y001350D03*
X016117Y001350D03*
X015117Y001350D03*
X014117Y001350D03*
X013117Y001350D03*
X012117Y001350D03*
X011117Y001350D03*
X010117Y001350D03*
X009117Y001350D03*
X008117Y001350D03*
X007117Y001350D03*
X007117Y002350D03*
X008117Y002350D03*
X009117Y002350D03*
X010117Y002350D03*
X011117Y002350D03*
X012117Y002350D03*
X013117Y002350D03*
X014117Y002350D03*
X014117Y019350D03*
X013117Y019350D03*
X012117Y019350D03*
X011117Y019350D03*
X010117Y019350D03*
X009117Y019350D03*
X008117Y019350D03*
X007117Y019350D03*
X007117Y020350D03*
X008117Y020350D03*
X009117Y020350D03*
X010117Y020350D03*
X011117Y020350D03*
X012117Y020350D03*
X013117Y020350D03*
X014117Y020350D03*
X015117Y020350D03*
X016117Y020350D03*
X017117Y020350D03*
X018117Y020350D03*
X019117Y020350D03*
X020117Y020350D03*
X021117Y020350D03*
X022117Y020350D03*
X023117Y020350D03*
X024117Y020350D03*
X025117Y020350D03*
X026117Y020350D03*
X027117Y020350D03*
X028117Y020350D03*
X029117Y020350D03*
X029117Y019350D03*
X028117Y019350D03*
X027117Y019350D03*
X026117Y019350D03*
X025117Y019350D03*
X024117Y019350D03*
X023117Y019350D03*
X022117Y019350D03*
X021117Y019350D03*
X020117Y019350D03*
X019117Y019350D03*
X018117Y019350D03*
X017117Y019350D03*
X016117Y019350D03*
X015117Y019350D03*
D12*
X004647Y006100D02*
X004087Y006100D01*
X004087Y005100D02*
X004647Y005100D01*
X001647Y005100D02*
X001087Y005100D01*
X001087Y006100D02*
X001647Y006100D01*
D13*
X001433Y001358D02*
X001625Y001166D01*
X001839Y000998D01*
X002071Y000858D01*
X002319Y000746D01*
X002578Y000665D01*
X002845Y000616D01*
X003117Y000600D01*
X029117Y000600D01*
X029613Y000626D01*
X030104Y000704D01*
X030584Y000832D01*
X031049Y001011D01*
X031492Y001236D01*
X031909Y001507D01*
X032295Y001820D01*
X032647Y002172D01*
X032959Y002558D01*
X033230Y002975D01*
X033456Y003418D01*
X033634Y003882D01*
X033763Y004362D01*
X033841Y004853D01*
X033867Y005350D01*
X033867Y016100D01*
X033839Y016623D01*
X033757Y017140D01*
X033622Y017645D01*
X033434Y018134D01*
X033197Y018600D01*
X032912Y019039D01*
X032582Y019446D01*
X032212Y019816D01*
X031806Y020145D01*
X031367Y020430D01*
X030900Y020668D01*
X030412Y020855D01*
X029906Y020991D01*
X029389Y021073D01*
X028867Y021100D01*
X002617Y021100D01*
X002617Y015850D01*
X008867Y015850D01*
X008867Y007850D01*
X000867Y007850D01*
X000867Y002850D01*
X000883Y002579D01*
X000932Y002312D01*
X001013Y002052D01*
X001124Y001804D01*
X001265Y001572D01*
X001433Y001358D01*
X001425Y001368D02*
X007679Y001368D01*
X007679Y001210D02*
X001581Y001210D01*
X001771Y001051D02*
X007679Y001051D01*
X007679Y001006D02*
X007773Y000913D01*
X008460Y000913D01*
X008554Y001006D01*
X008554Y001694D01*
X008460Y001787D01*
X007773Y001787D01*
X007679Y001694D01*
X007679Y001006D01*
X008554Y001051D02*
X008679Y001051D01*
X008679Y001006D02*
X008773Y000913D01*
X009460Y000913D01*
X009554Y001006D01*
X009554Y001694D01*
X009460Y001787D01*
X008773Y001787D01*
X008679Y001694D01*
X008679Y001006D01*
X008679Y001210D02*
X008554Y001210D01*
X008554Y001368D02*
X008679Y001368D01*
X008679Y001527D02*
X008554Y001527D01*
X008554Y001685D02*
X008679Y001685D01*
X008773Y001913D02*
X009460Y001913D01*
X009554Y002006D01*
X009554Y002694D01*
X009460Y002787D01*
X008773Y002787D01*
X008679Y002694D01*
X008679Y002006D01*
X008773Y001913D01*
X008683Y002002D02*
X008550Y002002D01*
X008554Y002006D02*
X008554Y002694D01*
X008460Y002787D01*
X007773Y002787D01*
X007679Y002694D01*
X007679Y002006D01*
X007773Y001913D01*
X008460Y001913D01*
X008554Y002006D01*
X008554Y002161D02*
X008679Y002161D01*
X008679Y002319D02*
X008554Y002319D01*
X008554Y002478D02*
X008679Y002478D01*
X008679Y002636D02*
X008554Y002636D01*
X007679Y002636D02*
X000880Y002636D01*
X000870Y002795D02*
X033113Y002795D01*
X033216Y002953D02*
X000867Y002953D01*
X000867Y003112D02*
X033300Y003112D01*
X033381Y003270D02*
X000867Y003270D01*
X000867Y003429D02*
X033460Y003429D01*
X033521Y003587D02*
X000867Y003587D01*
X000867Y003746D02*
X033582Y003746D01*
X033640Y003904D02*
X000867Y003904D01*
X000867Y004063D02*
X033683Y004063D01*
X033725Y004221D02*
X000867Y004221D01*
X000867Y004380D02*
X033766Y004380D01*
X033791Y004538D02*
X000867Y004538D01*
X000867Y004697D02*
X003911Y004697D01*
X003837Y004727D02*
X003999Y004660D01*
X004734Y004660D01*
X004896Y004727D01*
X005020Y004851D01*
X005087Y005012D01*
X005087Y005188D01*
X005020Y005349D01*
X004896Y005473D01*
X004734Y005540D01*
X003999Y005540D01*
X003837Y005473D01*
X003714Y005349D01*
X003647Y005188D01*
X003647Y005012D01*
X003714Y004851D01*
X003837Y004727D01*
X003712Y004855D02*
X000867Y004855D01*
X000867Y005014D02*
X003647Y005014D01*
X003647Y005172D02*
X000867Y005172D01*
X000867Y005331D02*
X003706Y005331D01*
X003876Y005489D02*
X000867Y005489D01*
X000867Y005648D02*
X033867Y005648D01*
X033867Y005806D02*
X004975Y005806D01*
X005020Y005851D02*
X005087Y006012D01*
X005087Y006188D01*
X005020Y006349D01*
X004896Y006473D01*
X004734Y006540D01*
X003999Y006540D01*
X003837Y006473D01*
X003714Y006349D01*
X003647Y006188D01*
X003647Y006012D01*
X003714Y005851D01*
X003837Y005727D01*
X003999Y005660D01*
X004734Y005660D01*
X004896Y005727D01*
X005020Y005851D01*
X005067Y005965D02*
X033867Y005965D01*
X033867Y006123D02*
X005087Y006123D01*
X005048Y006282D02*
X033867Y006282D01*
X033867Y006440D02*
X004929Y006440D01*
X003804Y006440D02*
X000867Y006440D01*
X000867Y006282D02*
X003686Y006282D01*
X003647Y006123D02*
X000867Y006123D01*
X000867Y005965D02*
X003667Y005965D01*
X003758Y005806D02*
X000867Y005806D01*
X000867Y006599D02*
X033867Y006599D01*
X033867Y006757D02*
X000867Y006757D01*
X000867Y006916D02*
X033867Y006916D01*
X033867Y007074D02*
X016010Y007074D01*
X016032Y007096D02*
X016087Y007228D01*
X016087Y007372D01*
X016032Y007504D01*
X015931Y007605D01*
X015798Y007660D01*
X015763Y007660D01*
X015367Y008056D01*
X015367Y008092D01*
X015312Y008224D01*
X015211Y008325D01*
X015078Y008380D01*
X014935Y008380D01*
X014803Y008325D01*
X014701Y008224D01*
X014647Y008092D01*
X014647Y007948D01*
X014701Y007816D01*
X014803Y007715D01*
X014935Y007660D01*
X014971Y007660D01*
X015367Y007264D01*
X015367Y007228D01*
X015421Y007096D01*
X015523Y006995D01*
X015655Y006940D01*
X015798Y006940D01*
X015931Y006995D01*
X016032Y007096D01*
X016087Y007233D02*
X033867Y007233D01*
X033867Y007391D02*
X016079Y007391D01*
X015986Y007550D02*
X033867Y007550D01*
X033867Y007708D02*
X015715Y007708D01*
X015556Y007867D02*
X033867Y007867D01*
X033867Y008025D02*
X015398Y008025D01*
X015329Y008184D02*
X033867Y008184D01*
X033867Y008342D02*
X015170Y008342D01*
X014843Y008342D02*
X008867Y008342D01*
X008867Y008184D02*
X014685Y008184D01*
X014647Y008025D02*
X008867Y008025D01*
X008867Y007867D02*
X014681Y007867D01*
X014819Y007708D02*
X000867Y007708D01*
X000867Y007550D02*
X015081Y007550D01*
X015240Y007391D02*
X000867Y007391D01*
X000867Y007233D02*
X015367Y007233D01*
X015444Y007074D02*
X000867Y007074D01*
X004822Y004697D02*
X033816Y004697D01*
X033841Y004855D02*
X005021Y004855D01*
X005087Y005014D02*
X033849Y005014D01*
X033857Y005172D02*
X005087Y005172D01*
X005027Y005331D02*
X033866Y005331D01*
X033867Y005489D02*
X004857Y005489D01*
X009554Y002636D02*
X009679Y002636D01*
X009679Y002694D02*
X009679Y002006D01*
X009773Y001913D01*
X010460Y001913D01*
X010554Y002006D01*
X010554Y002694D01*
X010460Y002787D01*
X009773Y002787D01*
X009679Y002694D01*
X009679Y002478D02*
X009554Y002478D01*
X009554Y002319D02*
X009679Y002319D01*
X009679Y002161D02*
X009554Y002161D01*
X009550Y002002D02*
X009683Y002002D01*
X009773Y001787D02*
X009679Y001694D01*
X009679Y001006D01*
X009773Y000913D01*
X010460Y000913D01*
X010554Y001006D01*
X010554Y001694D01*
X010460Y001787D01*
X009773Y001787D01*
X009679Y001685D02*
X009554Y001685D01*
X009554Y001527D02*
X009679Y001527D01*
X009679Y001368D02*
X009554Y001368D01*
X009554Y001210D02*
X009679Y001210D01*
X009679Y001051D02*
X009554Y001051D01*
X010554Y001051D02*
X010679Y001051D01*
X010679Y001006D02*
X010773Y000913D01*
X011460Y000913D01*
X011554Y001006D01*
X011554Y001694D01*
X011460Y001787D01*
X010773Y001787D01*
X010679Y001694D01*
X010679Y001006D01*
X010679Y001210D02*
X010554Y001210D01*
X010554Y001368D02*
X010679Y001368D01*
X010679Y001527D02*
X010554Y001527D01*
X010554Y001685D02*
X010679Y001685D01*
X010773Y001913D02*
X011460Y001913D01*
X011554Y002006D01*
X011554Y002694D01*
X011460Y002787D01*
X010773Y002787D01*
X010679Y002694D01*
X010679Y002006D01*
X010773Y001913D01*
X010683Y002002D02*
X010550Y002002D01*
X010554Y002161D02*
X010679Y002161D01*
X010679Y002319D02*
X010554Y002319D01*
X010554Y002478D02*
X010679Y002478D01*
X010679Y002636D02*
X010554Y002636D01*
X011554Y002636D02*
X011679Y002636D01*
X011679Y002694D02*
X011679Y002006D01*
X011773Y001913D01*
X012460Y001913D01*
X012554Y002006D01*
X012554Y002694D01*
X012460Y002787D01*
X011773Y002787D01*
X011679Y002694D01*
X011679Y002478D02*
X011554Y002478D01*
X011554Y002319D02*
X011679Y002319D01*
X011679Y002161D02*
X011554Y002161D01*
X011550Y002002D02*
X011683Y002002D01*
X011773Y001787D02*
X011679Y001694D01*
X011679Y001006D01*
X011773Y000913D01*
X012460Y000913D01*
X012554Y001006D01*
X012554Y001694D01*
X012460Y001787D01*
X011773Y001787D01*
X011679Y001685D02*
X011554Y001685D01*
X011554Y001527D02*
X011679Y001527D01*
X011679Y001368D02*
X011554Y001368D01*
X011554Y001210D02*
X011679Y001210D01*
X011679Y001051D02*
X011554Y001051D01*
X012554Y001051D02*
X012679Y001051D01*
X012679Y001006D02*
X012773Y000913D01*
X013460Y000913D01*
X013554Y001006D01*
X013554Y001694D01*
X013460Y001787D01*
X012773Y001787D01*
X012679Y001694D01*
X012679Y001006D01*
X012679Y001210D02*
X012554Y001210D01*
X012554Y001368D02*
X012679Y001368D01*
X012679Y001527D02*
X012554Y001527D01*
X012554Y001685D02*
X012679Y001685D01*
X012773Y001913D02*
X013460Y001913D01*
X013554Y002006D01*
X013554Y002694D01*
X013460Y002787D01*
X012773Y002787D01*
X012679Y002694D01*
X012679Y002006D01*
X012773Y001913D01*
X012683Y002002D02*
X012550Y002002D01*
X012554Y002161D02*
X012679Y002161D01*
X012679Y002319D02*
X012554Y002319D01*
X012554Y002478D02*
X012679Y002478D01*
X012679Y002636D02*
X012554Y002636D01*
X013554Y002636D02*
X013679Y002636D01*
X013679Y002694D02*
X013679Y002006D01*
X013773Y001913D01*
X014460Y001913D01*
X014554Y002006D01*
X014554Y002694D01*
X014460Y002787D01*
X013773Y002787D01*
X013679Y002694D01*
X013679Y002478D02*
X013554Y002478D01*
X013554Y002319D02*
X013679Y002319D01*
X013679Y002161D02*
X013554Y002161D01*
X013550Y002002D02*
X013683Y002002D01*
X013773Y001787D02*
X013679Y001694D01*
X013679Y001006D01*
X013773Y000913D01*
X014460Y000913D01*
X014554Y001006D01*
X014554Y001694D01*
X014460Y001787D01*
X013773Y001787D01*
X013679Y001685D02*
X013554Y001685D01*
X013554Y001527D02*
X013679Y001527D01*
X013679Y001368D02*
X013554Y001368D01*
X013554Y001210D02*
X013679Y001210D01*
X013679Y001051D02*
X013554Y001051D01*
X014554Y001051D02*
X014679Y001051D01*
X014679Y001006D02*
X014773Y000913D01*
X015460Y000913D01*
X015554Y001006D01*
X015554Y001694D01*
X015460Y001787D01*
X014773Y001787D01*
X014679Y001694D01*
X014679Y001006D01*
X014679Y001210D02*
X014554Y001210D01*
X014554Y001368D02*
X014679Y001368D01*
X014679Y001527D02*
X014554Y001527D01*
X014554Y001685D02*
X014679Y001685D01*
X014773Y001913D02*
X015460Y001913D01*
X015554Y002006D01*
X015554Y002694D01*
X015460Y002787D01*
X014773Y002787D01*
X014679Y002694D01*
X014679Y002006D01*
X014773Y001913D01*
X014683Y002002D02*
X014550Y002002D01*
X014554Y002161D02*
X014679Y002161D01*
X014679Y002319D02*
X014554Y002319D01*
X014554Y002478D02*
X014679Y002478D01*
X014679Y002636D02*
X014554Y002636D01*
X015554Y002636D02*
X015679Y002636D01*
X015679Y002694D02*
X015679Y002006D01*
X015773Y001913D01*
X016460Y001913D01*
X016554Y002006D01*
X016554Y002694D01*
X016460Y002787D01*
X015773Y002787D01*
X015679Y002694D01*
X015679Y002478D02*
X015554Y002478D01*
X015554Y002319D02*
X015679Y002319D01*
X015679Y002161D02*
X015554Y002161D01*
X015550Y002002D02*
X015683Y002002D01*
X015773Y001787D02*
X015679Y001694D01*
X015679Y001006D01*
X015773Y000913D01*
X016460Y000913D01*
X016554Y001006D01*
X016554Y001694D01*
X016460Y001787D01*
X015773Y001787D01*
X015679Y001685D02*
X015554Y001685D01*
X015554Y001527D02*
X015679Y001527D01*
X015679Y001368D02*
X015554Y001368D01*
X015554Y001210D02*
X015679Y001210D01*
X015679Y001051D02*
X015554Y001051D01*
X016554Y001051D02*
X016679Y001051D01*
X016679Y001006D02*
X016773Y000913D01*
X017460Y000913D01*
X017554Y001006D01*
X017554Y001694D01*
X017460Y001787D01*
X016773Y001787D01*
X016679Y001694D01*
X016679Y001006D01*
X016679Y001210D02*
X016554Y001210D01*
X016554Y001368D02*
X016679Y001368D01*
X016679Y001527D02*
X016554Y001527D01*
X016554Y001685D02*
X016679Y001685D01*
X016773Y001913D02*
X017460Y001913D01*
X017554Y002006D01*
X017554Y002694D01*
X017460Y002787D01*
X016773Y002787D01*
X016679Y002694D01*
X016679Y002006D01*
X016773Y001913D01*
X016683Y002002D02*
X016550Y002002D01*
X016554Y002161D02*
X016679Y002161D01*
X016679Y002319D02*
X016554Y002319D01*
X016554Y002478D02*
X016679Y002478D01*
X016679Y002636D02*
X016554Y002636D01*
X017554Y002636D02*
X017679Y002636D01*
X017679Y002694D02*
X017679Y002006D01*
X017773Y001913D01*
X018460Y001913D01*
X018554Y002006D01*
X018554Y002694D01*
X018460Y002787D01*
X017773Y002787D01*
X017679Y002694D01*
X017679Y002478D02*
X017554Y002478D01*
X017554Y002319D02*
X017679Y002319D01*
X017679Y002161D02*
X017554Y002161D01*
X017550Y002002D02*
X017683Y002002D01*
X017773Y001787D02*
X017679Y001694D01*
X017679Y001006D01*
X017773Y000913D01*
X018460Y000913D01*
X018554Y001006D01*
X018554Y001694D01*
X018460Y001787D01*
X017773Y001787D01*
X017679Y001685D02*
X017554Y001685D01*
X017554Y001527D02*
X017679Y001527D01*
X017679Y001368D02*
X017554Y001368D01*
X017554Y001210D02*
X017679Y001210D01*
X017679Y001051D02*
X017554Y001051D01*
X018554Y001051D02*
X018679Y001051D01*
X018679Y001006D02*
X018773Y000913D01*
X019460Y000913D01*
X019554Y001006D01*
X019554Y001694D01*
X019460Y001787D01*
X018773Y001787D01*
X018679Y001694D01*
X018679Y001006D01*
X018679Y001210D02*
X018554Y001210D01*
X018554Y001368D02*
X018679Y001368D01*
X018679Y001527D02*
X018554Y001527D01*
X018554Y001685D02*
X018679Y001685D01*
X018773Y001913D02*
X019460Y001913D01*
X019554Y002006D01*
X019554Y002694D01*
X019460Y002787D01*
X018773Y002787D01*
X018679Y002694D01*
X018679Y002006D01*
X018773Y001913D01*
X018683Y002002D02*
X018550Y002002D01*
X018554Y002161D02*
X018679Y002161D01*
X018679Y002319D02*
X018554Y002319D01*
X018554Y002478D02*
X018679Y002478D01*
X018679Y002636D02*
X018554Y002636D01*
X019554Y002636D02*
X019679Y002636D01*
X019679Y002694D02*
X019679Y002006D01*
X019773Y001913D01*
X020460Y001913D01*
X020554Y002006D01*
X020554Y002694D01*
X020460Y002787D01*
X019773Y002787D01*
X019679Y002694D01*
X019679Y002478D02*
X019554Y002478D01*
X019554Y002319D02*
X019679Y002319D01*
X019679Y002161D02*
X019554Y002161D01*
X019550Y002002D02*
X019683Y002002D01*
X019773Y001787D02*
X019679Y001694D01*
X019679Y001006D01*
X019773Y000913D01*
X020460Y000913D01*
X020554Y001006D01*
X020554Y001694D01*
X020460Y001787D01*
X019773Y001787D01*
X019679Y001685D02*
X019554Y001685D01*
X019554Y001527D02*
X019679Y001527D01*
X019679Y001368D02*
X019554Y001368D01*
X019554Y001210D02*
X019679Y001210D01*
X019679Y001051D02*
X019554Y001051D01*
X020554Y001051D02*
X020679Y001051D01*
X020679Y001006D02*
X020773Y000913D01*
X021460Y000913D01*
X021554Y001006D01*
X021554Y001694D01*
X021460Y001787D01*
X020773Y001787D01*
X020679Y001694D01*
X020679Y001006D01*
X020679Y001210D02*
X020554Y001210D01*
X020554Y001368D02*
X020679Y001368D01*
X020679Y001527D02*
X020554Y001527D01*
X020554Y001685D02*
X020679Y001685D01*
X020773Y001913D02*
X021460Y001913D01*
X021554Y002006D01*
X021554Y002694D01*
X021460Y002787D01*
X020773Y002787D01*
X020679Y002694D01*
X020679Y002006D01*
X020773Y001913D01*
X020683Y002002D02*
X020550Y002002D01*
X020554Y002161D02*
X020679Y002161D01*
X020679Y002319D02*
X020554Y002319D01*
X020554Y002478D02*
X020679Y002478D01*
X020679Y002636D02*
X020554Y002636D01*
X021554Y002636D02*
X021679Y002636D01*
X021679Y002694D02*
X021679Y002006D01*
X021773Y001913D01*
X022460Y001913D01*
X022554Y002006D01*
X022554Y002694D01*
X022460Y002787D01*
X021773Y002787D01*
X021679Y002694D01*
X021679Y002478D02*
X021554Y002478D01*
X021554Y002319D02*
X021679Y002319D01*
X021679Y002161D02*
X021554Y002161D01*
X021550Y002002D02*
X021683Y002002D01*
X021773Y001787D02*
X021679Y001694D01*
X021679Y001006D01*
X021773Y000913D01*
X022460Y000913D01*
X022554Y001006D01*
X022554Y001694D01*
X022460Y001787D01*
X021773Y001787D01*
X021679Y001685D02*
X021554Y001685D01*
X021554Y001527D02*
X021679Y001527D01*
X021679Y001368D02*
X021554Y001368D01*
X021554Y001210D02*
X021679Y001210D01*
X021679Y001051D02*
X021554Y001051D01*
X022554Y001051D02*
X022679Y001051D01*
X022679Y001006D02*
X022773Y000913D01*
X023460Y000913D01*
X023554Y001006D01*
X023554Y001694D01*
X023460Y001787D01*
X022773Y001787D01*
X022679Y001694D01*
X022679Y001006D01*
X022679Y001210D02*
X022554Y001210D01*
X022554Y001368D02*
X022679Y001368D01*
X022679Y001527D02*
X022554Y001527D01*
X022554Y001685D02*
X022679Y001685D01*
X022773Y001913D02*
X023460Y001913D01*
X023554Y002006D01*
X023554Y002694D01*
X023460Y002787D01*
X022773Y002787D01*
X022679Y002694D01*
X022679Y002006D01*
X022773Y001913D01*
X022683Y002002D02*
X022550Y002002D01*
X022554Y002161D02*
X022679Y002161D01*
X022679Y002319D02*
X022554Y002319D01*
X022554Y002478D02*
X022679Y002478D01*
X022679Y002636D02*
X022554Y002636D01*
X023554Y002636D02*
X023679Y002636D01*
X023679Y002694D02*
X023679Y002006D01*
X023773Y001913D01*
X024460Y001913D01*
X024554Y002006D01*
X024554Y002694D01*
X024460Y002787D01*
X023773Y002787D01*
X023679Y002694D01*
X023679Y002478D02*
X023554Y002478D01*
X023554Y002319D02*
X023679Y002319D01*
X023679Y002161D02*
X023554Y002161D01*
X023550Y002002D02*
X023683Y002002D01*
X023773Y001787D02*
X023679Y001694D01*
X023679Y001006D01*
X023773Y000913D01*
X024460Y000913D01*
X024554Y001006D01*
X024554Y001694D01*
X024460Y001787D01*
X023773Y001787D01*
X023679Y001685D02*
X023554Y001685D01*
X023554Y001527D02*
X023679Y001527D01*
X023679Y001368D02*
X023554Y001368D01*
X023554Y001210D02*
X023679Y001210D01*
X023679Y001051D02*
X023554Y001051D01*
X024554Y001051D02*
X024679Y001051D01*
X024679Y001006D02*
X024773Y000913D01*
X025460Y000913D01*
X025554Y001006D01*
X025554Y001694D01*
X025460Y001787D01*
X024773Y001787D01*
X024679Y001694D01*
X024679Y001006D01*
X024679Y001210D02*
X024554Y001210D01*
X024554Y001368D02*
X024679Y001368D01*
X024679Y001527D02*
X024554Y001527D01*
X024554Y001685D02*
X024679Y001685D01*
X024773Y001913D02*
X025460Y001913D01*
X025554Y002006D01*
X025554Y002694D01*
X025460Y002787D01*
X024773Y002787D01*
X024679Y002694D01*
X024679Y002006D01*
X024773Y001913D01*
X024683Y002002D02*
X024550Y002002D01*
X024554Y002161D02*
X024679Y002161D01*
X024679Y002319D02*
X024554Y002319D01*
X024554Y002478D02*
X024679Y002478D01*
X024679Y002636D02*
X024554Y002636D01*
X025554Y002636D02*
X025679Y002636D01*
X025679Y002694D02*
X025679Y002006D01*
X025773Y001913D01*
X026460Y001913D01*
X026554Y002006D01*
X026554Y002694D01*
X026460Y002787D01*
X025773Y002787D01*
X025679Y002694D01*
X025679Y002478D02*
X025554Y002478D01*
X025554Y002319D02*
X025679Y002319D01*
X025679Y002161D02*
X025554Y002161D01*
X025550Y002002D02*
X025683Y002002D01*
X025773Y001787D02*
X025679Y001694D01*
X025679Y001006D01*
X025773Y000913D01*
X026460Y000913D01*
X026554Y001006D01*
X026554Y001694D01*
X026460Y001787D01*
X025773Y001787D01*
X025679Y001685D02*
X025554Y001685D01*
X025554Y001527D02*
X025679Y001527D01*
X025679Y001368D02*
X025554Y001368D01*
X025554Y001210D02*
X025679Y001210D01*
X025679Y001051D02*
X025554Y001051D01*
X026554Y001051D02*
X026679Y001051D01*
X026679Y001006D02*
X026773Y000913D01*
X027460Y000913D01*
X027554Y001006D01*
X027554Y001694D01*
X027460Y001787D01*
X026773Y001787D01*
X026679Y001694D01*
X026679Y001006D01*
X026679Y001210D02*
X026554Y001210D01*
X026554Y001368D02*
X026679Y001368D01*
X026679Y001527D02*
X026554Y001527D01*
X026554Y001685D02*
X026679Y001685D01*
X026773Y001913D02*
X027460Y001913D01*
X027554Y002006D01*
X027554Y002694D01*
X027460Y002787D01*
X026773Y002787D01*
X026679Y002694D01*
X026679Y002006D01*
X026773Y001913D01*
X026683Y002002D02*
X026550Y002002D01*
X026554Y002161D02*
X026679Y002161D01*
X026679Y002319D02*
X026554Y002319D01*
X026554Y002478D02*
X026679Y002478D01*
X026679Y002636D02*
X026554Y002636D01*
X027554Y002636D02*
X033010Y002636D01*
X032894Y002478D02*
X027554Y002478D01*
X027554Y002319D02*
X032766Y002319D01*
X032635Y002161D02*
X027554Y002161D01*
X027550Y002002D02*
X032477Y002002D01*
X032318Y001844D02*
X001107Y001844D01*
X001035Y002002D02*
X007683Y002002D01*
X007679Y002161D02*
X000979Y002161D01*
X000931Y002319D02*
X007679Y002319D01*
X007679Y002478D02*
X000902Y002478D01*
X001197Y001685D02*
X007679Y001685D01*
X007679Y001527D02*
X001300Y001527D01*
X002014Y000893D02*
X030741Y000893D01*
X031128Y001051D02*
X027554Y001051D01*
X027554Y001210D02*
X031439Y001210D01*
X031694Y001368D02*
X027554Y001368D01*
X027554Y001527D02*
X031933Y001527D01*
X032128Y001685D02*
X027554Y001685D01*
X030217Y000734D02*
X002358Y000734D01*
X008867Y008501D02*
X033867Y008501D01*
X033867Y008659D02*
X008867Y008659D01*
X008867Y008818D02*
X033867Y008818D01*
X033867Y008976D02*
X008867Y008976D01*
X008867Y009135D02*
X033867Y009135D01*
X033867Y009293D02*
X008867Y009293D01*
X008867Y009452D02*
X033867Y009452D01*
X033867Y009610D02*
X008867Y009610D01*
X008867Y009769D02*
X033867Y009769D01*
X033867Y009927D02*
X008867Y009927D01*
X008867Y010086D02*
X033867Y010086D01*
X033867Y010244D02*
X008867Y010244D01*
X008867Y010403D02*
X033867Y010403D01*
X033867Y010561D02*
X021797Y010561D01*
X021797Y010525D02*
X021797Y017175D01*
X021691Y017280D01*
X015042Y017280D01*
X014937Y017175D01*
X014937Y010525D01*
X015042Y010420D01*
X015191Y010420D01*
X021691Y010420D01*
X021797Y010525D01*
X021797Y010720D02*
X033867Y010720D01*
X033867Y010878D02*
X021797Y010878D01*
X021797Y011037D02*
X033867Y011037D01*
X033867Y011195D02*
X021797Y011195D01*
X021797Y011354D02*
X033867Y011354D01*
X033867Y011512D02*
X021797Y011512D01*
X021797Y011671D02*
X033867Y011671D01*
X033867Y011829D02*
X021797Y011829D01*
X021797Y011988D02*
X033867Y011988D01*
X033867Y012146D02*
X021797Y012146D01*
X021797Y012305D02*
X033867Y012305D01*
X033867Y012463D02*
X021797Y012463D01*
X021797Y012622D02*
X033867Y012622D01*
X033867Y012780D02*
X021797Y012780D01*
X021797Y012939D02*
X033867Y012939D01*
X033867Y013097D02*
X021797Y013097D01*
X021797Y013256D02*
X033867Y013256D01*
X033867Y013414D02*
X021797Y013414D01*
X021797Y013573D02*
X033867Y013573D01*
X033867Y013731D02*
X021797Y013731D01*
X021797Y013890D02*
X033867Y013890D01*
X033867Y014048D02*
X021797Y014048D01*
X021797Y014207D02*
X033867Y014207D01*
X033867Y014365D02*
X021797Y014365D01*
X021797Y014524D02*
X033867Y014524D01*
X033867Y014682D02*
X021797Y014682D01*
X021797Y014841D02*
X033867Y014841D01*
X033867Y014999D02*
X021797Y014999D01*
X021797Y015158D02*
X033867Y015158D01*
X033867Y015316D02*
X021797Y015316D01*
X021797Y015475D02*
X033867Y015475D01*
X033867Y015633D02*
X021797Y015633D01*
X021797Y015792D02*
X033867Y015792D01*
X033867Y015950D02*
X021797Y015950D01*
X021797Y016109D02*
X033866Y016109D01*
X033858Y016267D02*
X021797Y016267D01*
X021797Y016426D02*
X033850Y016426D01*
X033841Y016584D02*
X021797Y016584D01*
X021797Y016743D02*
X033820Y016743D01*
X033795Y016901D02*
X021797Y016901D01*
X021797Y017060D02*
X033770Y017060D01*
X033736Y017218D02*
X021753Y017218D01*
X021773Y018913D02*
X021679Y019006D01*
X021679Y019694D01*
X021773Y019787D01*
X022460Y019787D01*
X022554Y019694D01*
X022554Y019006D01*
X022460Y018913D01*
X021773Y018913D01*
X021724Y018962D02*
X021509Y018962D01*
X021554Y019006D02*
X021554Y019694D01*
X021460Y019787D01*
X020773Y019787D01*
X020679Y019694D01*
X020679Y019006D01*
X020773Y018913D01*
X021460Y018913D01*
X021554Y019006D01*
X021554Y019120D02*
X021679Y019120D01*
X021679Y019279D02*
X021554Y019279D01*
X021554Y019437D02*
X021679Y019437D01*
X021679Y019596D02*
X021554Y019596D01*
X021494Y019754D02*
X021739Y019754D01*
X021773Y019913D02*
X022460Y019913D01*
X022773Y019913D01*
X023460Y019913D01*
X023773Y019913D01*
X024460Y019913D01*
X024773Y019913D01*
X025460Y019913D01*
X025773Y019913D01*
X026460Y019913D01*
X026773Y019913D01*
X027460Y019913D01*
X027773Y019913D01*
X028460Y019913D01*
X028773Y019913D01*
X029460Y019913D01*
X032093Y019913D01*
X032274Y019754D02*
X029494Y019754D01*
X029460Y019787D02*
X029554Y019694D01*
X029554Y019006D01*
X029460Y018913D01*
X028773Y018913D01*
X028679Y019006D01*
X028679Y019694D01*
X028773Y019787D01*
X029460Y019787D01*
X029460Y019913D02*
X029554Y020006D01*
X029554Y020694D01*
X029460Y020787D01*
X028773Y020787D01*
X028679Y020694D01*
X028679Y020006D01*
X028773Y019913D01*
X028739Y019754D02*
X028494Y019754D01*
X028460Y019787D02*
X028554Y019694D01*
X028554Y019006D01*
X028460Y018913D01*
X027773Y018913D01*
X027679Y019006D01*
X027679Y019694D01*
X027773Y019787D01*
X028460Y019787D01*
X028460Y019913D02*
X028554Y020006D01*
X028554Y020694D01*
X028460Y020787D01*
X027773Y020787D01*
X027679Y020694D01*
X027679Y020006D01*
X027773Y019913D01*
X027739Y019754D02*
X027494Y019754D01*
X027460Y019787D02*
X027554Y019694D01*
X027554Y019006D01*
X027460Y018913D01*
X026773Y018913D01*
X026679Y019006D01*
X026679Y019694D01*
X026773Y019787D01*
X027460Y019787D01*
X027460Y019913D02*
X027554Y020006D01*
X027554Y020694D01*
X027460Y020787D01*
X026773Y020787D01*
X026679Y020694D01*
X026679Y020006D01*
X026773Y019913D01*
X026739Y019754D02*
X026494Y019754D01*
X026460Y019787D02*
X026554Y019694D01*
X026554Y019006D01*
X026460Y018913D01*
X025773Y018913D01*
X025679Y019006D01*
X025679Y019694D01*
X025773Y019787D01*
X026460Y019787D01*
X026460Y019913D02*
X026554Y020006D01*
X026554Y020694D01*
X026460Y020787D01*
X025773Y020787D01*
X025679Y020694D01*
X025679Y020006D01*
X025773Y019913D01*
X025739Y019754D02*
X025494Y019754D01*
X025460Y019787D02*
X025554Y019694D01*
X025554Y019006D01*
X025460Y018913D01*
X024773Y018913D01*
X024679Y019006D01*
X024679Y019694D01*
X024773Y019787D01*
X025460Y019787D01*
X025460Y019913D02*
X025554Y020006D01*
X025554Y020694D01*
X025460Y020787D01*
X024773Y020787D01*
X024679Y020694D01*
X024679Y020006D01*
X024773Y019913D01*
X024739Y019754D02*
X024494Y019754D01*
X024460Y019787D02*
X024554Y019694D01*
X024554Y019006D01*
X024460Y018913D01*
X023773Y018913D01*
X023679Y019006D01*
X023679Y019694D01*
X023773Y019787D01*
X024460Y019787D01*
X024460Y019913D02*
X024554Y020006D01*
X024554Y020694D01*
X024460Y020787D01*
X023773Y020787D01*
X023679Y020694D01*
X023679Y020006D01*
X023773Y019913D01*
X023739Y019754D02*
X023494Y019754D01*
X023460Y019787D02*
X023554Y019694D01*
X023554Y019006D01*
X023460Y018913D01*
X022773Y018913D01*
X022679Y019006D01*
X022679Y019694D01*
X022773Y019787D01*
X023460Y019787D01*
X023460Y019913D02*
X023554Y020006D01*
X023554Y020694D01*
X023460Y020787D01*
X022773Y020787D01*
X022679Y020694D01*
X022679Y020006D01*
X022773Y019913D01*
X022739Y019754D02*
X022494Y019754D01*
X022460Y019913D02*
X022554Y020006D01*
X022554Y020694D01*
X022460Y020787D01*
X021773Y020787D01*
X021679Y020694D01*
X021679Y020006D01*
X021773Y019913D01*
X021460Y019913D01*
X021554Y020006D01*
X021554Y020694D01*
X021460Y020787D01*
X020773Y020787D01*
X020679Y020694D01*
X020679Y020006D01*
X020773Y019913D01*
X020460Y019913D01*
X020554Y020006D01*
X020554Y020694D01*
X020460Y020787D01*
X019773Y020787D01*
X019679Y020694D01*
X019679Y020006D01*
X019773Y019913D01*
X019460Y019913D01*
X019554Y020006D01*
X019554Y020694D01*
X019460Y020787D01*
X018773Y020787D01*
X018679Y020694D01*
X018679Y020006D01*
X018773Y019913D01*
X018460Y019913D01*
X018554Y020006D01*
X018554Y020694D01*
X018460Y020787D01*
X017773Y020787D01*
X017679Y020694D01*
X017679Y020006D01*
X017773Y019913D01*
X017460Y019913D01*
X017554Y020006D01*
X017554Y020694D01*
X017460Y020787D01*
X016773Y020787D01*
X016679Y020694D01*
X016679Y020006D01*
X016773Y019913D01*
X016460Y019913D01*
X016554Y020006D01*
X016554Y020694D01*
X016460Y020787D01*
X015773Y020787D01*
X015679Y020694D01*
X015679Y020006D01*
X015773Y019913D01*
X015460Y019913D01*
X015554Y020006D01*
X015554Y020694D01*
X015460Y020787D01*
X014773Y020787D01*
X014679Y020694D01*
X014679Y020006D01*
X014773Y019913D01*
X014460Y019913D01*
X014554Y020006D01*
X014554Y020694D01*
X014460Y020787D01*
X013773Y020787D01*
X013679Y020694D01*
X013679Y020006D01*
X013773Y019913D01*
X013460Y019913D01*
X013554Y020006D01*
X013554Y020694D01*
X013460Y020787D01*
X012773Y020787D01*
X012679Y020694D01*
X012679Y020006D01*
X012773Y019913D01*
X012460Y019913D01*
X012554Y020006D01*
X012554Y020694D01*
X012460Y020787D01*
X011773Y020787D01*
X011679Y020694D01*
X011679Y020006D01*
X011773Y019913D01*
X011460Y019913D01*
X011554Y020006D01*
X011554Y020694D01*
X011460Y020787D01*
X010773Y020787D01*
X010679Y020694D01*
X010679Y020006D01*
X010773Y019913D01*
X010460Y019913D01*
X010554Y020006D01*
X010554Y020694D01*
X010460Y020787D01*
X009773Y020787D01*
X009679Y020694D01*
X009679Y020006D01*
X009773Y019913D01*
X009460Y019913D01*
X009554Y020006D01*
X009554Y020694D01*
X009460Y020787D01*
X008773Y020787D01*
X008679Y020694D01*
X008679Y020006D01*
X008773Y019913D01*
X008460Y019913D01*
X008554Y020006D01*
X008554Y020694D01*
X008460Y020787D01*
X007773Y020787D01*
X007679Y020694D01*
X007679Y020006D01*
X007773Y019913D01*
X002617Y019913D01*
X002617Y020071D02*
X007679Y020071D01*
X007679Y020230D02*
X002617Y020230D01*
X002617Y020388D02*
X007679Y020388D01*
X007679Y020547D02*
X002617Y020547D01*
X002617Y020705D02*
X007690Y020705D01*
X008543Y020705D02*
X008690Y020705D01*
X008679Y020547D02*
X008554Y020547D01*
X008554Y020388D02*
X008679Y020388D01*
X008679Y020230D02*
X008554Y020230D01*
X008554Y020071D02*
X008679Y020071D01*
X008773Y019913D02*
X009460Y019913D01*
X009460Y019787D02*
X009554Y019694D01*
X009554Y019006D01*
X009460Y018913D01*
X008773Y018913D01*
X008679Y019006D01*
X008679Y019694D01*
X008773Y019787D01*
X009460Y019787D01*
X009494Y019754D02*
X009739Y019754D01*
X009773Y019787D02*
X009679Y019694D01*
X009679Y019006D01*
X009773Y018913D01*
X010460Y018913D01*
X010554Y019006D01*
X010554Y019694D01*
X010460Y019787D01*
X009773Y019787D01*
X009773Y019913D02*
X010460Y019913D01*
X010494Y019754D02*
X010739Y019754D01*
X010773Y019787D02*
X010679Y019694D01*
X010679Y019006D01*
X010773Y018913D01*
X011460Y018913D01*
X011554Y019006D01*
X011554Y019694D01*
X011460Y019787D01*
X010773Y019787D01*
X010773Y019913D02*
X011460Y019913D01*
X011494Y019754D02*
X011739Y019754D01*
X011773Y019787D02*
X011679Y019694D01*
X011679Y019006D01*
X011773Y018913D01*
X012460Y018913D01*
X012554Y019006D01*
X012554Y019694D01*
X012460Y019787D01*
X011773Y019787D01*
X011773Y019913D02*
X012460Y019913D01*
X012494Y019754D02*
X012739Y019754D01*
X012773Y019787D02*
X012679Y019694D01*
X012679Y019006D01*
X012773Y018913D01*
X013460Y018913D01*
X013554Y019006D01*
X013554Y019694D01*
X013460Y019787D01*
X012773Y019787D01*
X012773Y019913D02*
X013460Y019913D01*
X013494Y019754D02*
X013739Y019754D01*
X013773Y019787D02*
X013679Y019694D01*
X013679Y019006D01*
X013773Y018913D01*
X014460Y018913D01*
X014554Y019006D01*
X014554Y019694D01*
X014460Y019787D01*
X013773Y019787D01*
X013773Y019913D02*
X014460Y019913D01*
X014494Y019754D02*
X014739Y019754D01*
X014773Y019787D02*
X014679Y019694D01*
X014679Y019006D01*
X014773Y018913D01*
X015460Y018913D01*
X015554Y019006D01*
X015554Y019694D01*
X015460Y019787D01*
X014773Y019787D01*
X014773Y019913D02*
X015460Y019913D01*
X015494Y019754D02*
X015739Y019754D01*
X015773Y019787D02*
X015679Y019694D01*
X015679Y019006D01*
X015773Y018913D01*
X016460Y018913D01*
X016554Y019006D01*
X016554Y019694D01*
X016460Y019787D01*
X015773Y019787D01*
X015773Y019913D02*
X016460Y019913D01*
X016494Y019754D02*
X016739Y019754D01*
X016773Y019787D02*
X016679Y019694D01*
X016679Y019006D01*
X016773Y018913D01*
X017460Y018913D01*
X017554Y019006D01*
X017554Y019694D01*
X017460Y019787D01*
X016773Y019787D01*
X016773Y019913D02*
X017460Y019913D01*
X017494Y019754D02*
X017739Y019754D01*
X017773Y019787D02*
X017679Y019694D01*
X017679Y019006D01*
X017773Y018913D01*
X018460Y018913D01*
X018554Y019006D01*
X018554Y019694D01*
X018460Y019787D01*
X017773Y019787D01*
X017773Y019913D02*
X018460Y019913D01*
X018494Y019754D02*
X018739Y019754D01*
X018773Y019787D02*
X018679Y019694D01*
X018679Y019006D01*
X018773Y018913D01*
X019460Y018913D01*
X019554Y019006D01*
X019554Y019694D01*
X019460Y019787D01*
X018773Y019787D01*
X018773Y019913D02*
X019460Y019913D01*
X019494Y019754D02*
X019739Y019754D01*
X019773Y019787D02*
X019679Y019694D01*
X019679Y019006D01*
X019773Y018913D01*
X020460Y018913D01*
X020554Y019006D01*
X020554Y019694D01*
X020460Y019787D01*
X019773Y019787D01*
X019773Y019913D02*
X020460Y019913D01*
X020494Y019754D02*
X020739Y019754D01*
X020773Y019913D02*
X021460Y019913D01*
X021554Y020071D02*
X021679Y020071D01*
X021679Y020230D02*
X021554Y020230D01*
X021554Y020388D02*
X021679Y020388D01*
X021679Y020547D02*
X021554Y020547D01*
X021543Y020705D02*
X021690Y020705D01*
X020690Y020705D02*
X020543Y020705D01*
X020554Y020547D02*
X020679Y020547D01*
X020679Y020388D02*
X020554Y020388D01*
X020554Y020230D02*
X020679Y020230D01*
X020679Y020071D02*
X020554Y020071D01*
X020554Y019596D02*
X020679Y019596D01*
X020679Y019437D02*
X020554Y019437D01*
X020554Y019279D02*
X020679Y019279D01*
X020679Y019120D02*
X020554Y019120D01*
X020509Y018962D02*
X020724Y018962D01*
X019724Y018962D02*
X019509Y018962D01*
X019554Y019120D02*
X019679Y019120D01*
X019679Y019279D02*
X019554Y019279D01*
X019554Y019437D02*
X019679Y019437D01*
X019679Y019596D02*
X019554Y019596D01*
X019554Y020071D02*
X019679Y020071D01*
X019679Y020230D02*
X019554Y020230D01*
X019554Y020388D02*
X019679Y020388D01*
X019679Y020547D02*
X019554Y020547D01*
X019543Y020705D02*
X019690Y020705D01*
X018690Y020705D02*
X018543Y020705D01*
X018554Y020547D02*
X018679Y020547D01*
X018679Y020388D02*
X018554Y020388D01*
X018554Y020230D02*
X018679Y020230D01*
X018679Y020071D02*
X018554Y020071D01*
X018554Y019596D02*
X018679Y019596D01*
X018679Y019437D02*
X018554Y019437D01*
X018554Y019279D02*
X018679Y019279D01*
X018679Y019120D02*
X018554Y019120D01*
X018509Y018962D02*
X018724Y018962D01*
X017724Y018962D02*
X017509Y018962D01*
X017554Y019120D02*
X017679Y019120D01*
X017679Y019279D02*
X017554Y019279D01*
X017554Y019437D02*
X017679Y019437D01*
X017679Y019596D02*
X017554Y019596D01*
X017554Y020071D02*
X017679Y020071D01*
X017679Y020230D02*
X017554Y020230D01*
X017554Y020388D02*
X017679Y020388D01*
X017679Y020547D02*
X017554Y020547D01*
X017543Y020705D02*
X017690Y020705D01*
X016690Y020705D02*
X016543Y020705D01*
X016554Y020547D02*
X016679Y020547D01*
X016679Y020388D02*
X016554Y020388D01*
X016554Y020230D02*
X016679Y020230D01*
X016679Y020071D02*
X016554Y020071D01*
X016554Y019596D02*
X016679Y019596D01*
X016679Y019437D02*
X016554Y019437D01*
X016554Y019279D02*
X016679Y019279D01*
X016679Y019120D02*
X016554Y019120D01*
X016509Y018962D02*
X016724Y018962D01*
X015724Y018962D02*
X015509Y018962D01*
X015554Y019120D02*
X015679Y019120D01*
X015679Y019279D02*
X015554Y019279D01*
X015554Y019437D02*
X015679Y019437D01*
X015679Y019596D02*
X015554Y019596D01*
X015554Y020071D02*
X015679Y020071D01*
X015679Y020230D02*
X015554Y020230D01*
X015554Y020388D02*
X015679Y020388D01*
X015679Y020547D02*
X015554Y020547D01*
X015543Y020705D02*
X015690Y020705D01*
X014690Y020705D02*
X014543Y020705D01*
X014554Y020547D02*
X014679Y020547D01*
X014679Y020388D02*
X014554Y020388D01*
X014554Y020230D02*
X014679Y020230D01*
X014679Y020071D02*
X014554Y020071D01*
X014554Y019596D02*
X014679Y019596D01*
X014679Y019437D02*
X014554Y019437D01*
X014554Y019279D02*
X014679Y019279D01*
X014679Y019120D02*
X014554Y019120D01*
X014509Y018962D02*
X014724Y018962D01*
X013724Y018962D02*
X013509Y018962D01*
X013554Y019120D02*
X013679Y019120D01*
X013679Y019279D02*
X013554Y019279D01*
X013554Y019437D02*
X013679Y019437D01*
X013679Y019596D02*
X013554Y019596D01*
X013554Y020071D02*
X013679Y020071D01*
X013679Y020230D02*
X013554Y020230D01*
X013554Y020388D02*
X013679Y020388D01*
X013679Y020547D02*
X013554Y020547D01*
X013543Y020705D02*
X013690Y020705D01*
X012690Y020705D02*
X012543Y020705D01*
X012554Y020547D02*
X012679Y020547D01*
X012679Y020388D02*
X012554Y020388D01*
X012554Y020230D02*
X012679Y020230D01*
X012679Y020071D02*
X012554Y020071D01*
X012554Y019596D02*
X012679Y019596D01*
X012679Y019437D02*
X012554Y019437D01*
X012554Y019279D02*
X012679Y019279D01*
X012679Y019120D02*
X012554Y019120D01*
X012509Y018962D02*
X012724Y018962D01*
X011724Y018962D02*
X011509Y018962D01*
X011554Y019120D02*
X011679Y019120D01*
X011679Y019279D02*
X011554Y019279D01*
X011554Y019437D02*
X011679Y019437D01*
X011679Y019596D02*
X011554Y019596D01*
X011554Y020071D02*
X011679Y020071D01*
X011679Y020230D02*
X011554Y020230D01*
X011554Y020388D02*
X011679Y020388D01*
X011679Y020547D02*
X011554Y020547D01*
X011543Y020705D02*
X011690Y020705D01*
X010690Y020705D02*
X010543Y020705D01*
X010554Y020547D02*
X010679Y020547D01*
X010679Y020388D02*
X010554Y020388D01*
X010554Y020230D02*
X010679Y020230D01*
X010679Y020071D02*
X010554Y020071D01*
X010554Y019596D02*
X010679Y019596D01*
X010679Y019437D02*
X010554Y019437D01*
X010554Y019279D02*
X010679Y019279D01*
X010679Y019120D02*
X010554Y019120D01*
X010509Y018962D02*
X010724Y018962D01*
X009724Y018962D02*
X009509Y018962D01*
X009554Y019120D02*
X009679Y019120D01*
X009679Y019279D02*
X009554Y019279D01*
X009554Y019437D02*
X009679Y019437D01*
X009679Y019596D02*
X009554Y019596D01*
X009554Y020071D02*
X009679Y020071D01*
X009679Y020230D02*
X009554Y020230D01*
X009554Y020388D02*
X009679Y020388D01*
X009679Y020547D02*
X009554Y020547D01*
X009543Y020705D02*
X009690Y020705D01*
X008739Y019754D02*
X008494Y019754D01*
X008460Y019787D02*
X008554Y019694D01*
X008554Y019006D01*
X008460Y018913D01*
X007773Y018913D01*
X007679Y019006D01*
X007679Y019694D01*
X007773Y019787D01*
X008460Y019787D01*
X008460Y019913D02*
X007773Y019913D01*
X007739Y019754D02*
X002617Y019754D01*
X002617Y019596D02*
X007679Y019596D01*
X007679Y019437D02*
X002617Y019437D01*
X002617Y019279D02*
X007679Y019279D01*
X007679Y019120D02*
X002617Y019120D01*
X002617Y018962D02*
X007724Y018962D01*
X008509Y018962D02*
X008724Y018962D01*
X008679Y019120D02*
X008554Y019120D01*
X008554Y019279D02*
X008679Y019279D01*
X008679Y019437D02*
X008554Y019437D01*
X008554Y019596D02*
X008679Y019596D01*
X008867Y015792D02*
X014937Y015792D01*
X014937Y015950D02*
X002617Y015950D01*
X002617Y016109D02*
X014937Y016109D01*
X014937Y016267D02*
X002617Y016267D01*
X002617Y016426D02*
X014937Y016426D01*
X014937Y016584D02*
X002617Y016584D01*
X002617Y016743D02*
X014937Y016743D01*
X014937Y016901D02*
X002617Y016901D01*
X002617Y017060D02*
X014937Y017060D01*
X014980Y017218D02*
X002617Y017218D01*
X002617Y017377D02*
X033694Y017377D01*
X033651Y017535D02*
X002617Y017535D01*
X002617Y017694D02*
X033603Y017694D01*
X033543Y017852D02*
X002617Y017852D01*
X002617Y018011D02*
X033482Y018011D01*
X033416Y018169D02*
X002617Y018169D01*
X002617Y018328D02*
X033336Y018328D01*
X033255Y018486D02*
X002617Y018486D01*
X002617Y018645D02*
X033168Y018645D01*
X033065Y018803D02*
X002617Y018803D01*
X002617Y020864D02*
X030381Y020864D01*
X030803Y020705D02*
X029543Y020705D01*
X029554Y020547D02*
X031138Y020547D01*
X031431Y020388D02*
X029554Y020388D01*
X029554Y020230D02*
X031676Y020230D01*
X031897Y020071D02*
X029554Y020071D01*
X029554Y019596D02*
X032433Y019596D01*
X032589Y019437D02*
X029554Y019437D01*
X029554Y019279D02*
X032718Y019279D01*
X032846Y019120D02*
X029554Y019120D01*
X029509Y018962D02*
X032962Y018962D01*
X029709Y021022D02*
X002617Y021022D01*
X008867Y015633D02*
X014937Y015633D01*
X014937Y015475D02*
X008867Y015475D01*
X008867Y015316D02*
X014937Y015316D01*
X014937Y015158D02*
X008867Y015158D01*
X008867Y014999D02*
X014937Y014999D01*
X014937Y014841D02*
X008867Y014841D01*
X008867Y014682D02*
X014937Y014682D01*
X014937Y014524D02*
X008867Y014524D01*
X008867Y014365D02*
X014937Y014365D01*
X014937Y014207D02*
X008867Y014207D01*
X008867Y014048D02*
X014937Y014048D01*
X014937Y013890D02*
X008867Y013890D01*
X008867Y013731D02*
X014937Y013731D01*
X014937Y013573D02*
X008867Y013573D01*
X008867Y013414D02*
X014937Y013414D01*
X014937Y013256D02*
X008867Y013256D01*
X008867Y013097D02*
X014937Y013097D01*
X014937Y012939D02*
X008867Y012939D01*
X008867Y012780D02*
X014937Y012780D01*
X014937Y012622D02*
X008867Y012622D01*
X008867Y012463D02*
X014937Y012463D01*
X014937Y012305D02*
X008867Y012305D01*
X008867Y012146D02*
X014937Y012146D01*
X014937Y011988D02*
X008867Y011988D01*
X008867Y011829D02*
X014937Y011829D01*
X014937Y011671D02*
X008867Y011671D01*
X008867Y011512D02*
X014937Y011512D01*
X014937Y011354D02*
X008867Y011354D01*
X008867Y011195D02*
X014937Y011195D01*
X014937Y011037D02*
X008867Y011037D01*
X008867Y010878D02*
X014937Y010878D01*
X014937Y010720D02*
X008867Y010720D01*
X008867Y010561D02*
X014937Y010561D01*
X022509Y018962D02*
X022724Y018962D01*
X022679Y019120D02*
X022554Y019120D01*
X022554Y019279D02*
X022679Y019279D01*
X022679Y019437D02*
X022554Y019437D01*
X022554Y019596D02*
X022679Y019596D01*
X022679Y020071D02*
X022554Y020071D01*
X022554Y020230D02*
X022679Y020230D01*
X022679Y020388D02*
X022554Y020388D01*
X022554Y020547D02*
X022679Y020547D01*
X022690Y020705D02*
X022543Y020705D01*
X023543Y020705D02*
X023690Y020705D01*
X023679Y020547D02*
X023554Y020547D01*
X023554Y020388D02*
X023679Y020388D01*
X023679Y020230D02*
X023554Y020230D01*
X023554Y020071D02*
X023679Y020071D01*
X023679Y019596D02*
X023554Y019596D01*
X023554Y019437D02*
X023679Y019437D01*
X023679Y019279D02*
X023554Y019279D01*
X023554Y019120D02*
X023679Y019120D01*
X023724Y018962D02*
X023509Y018962D01*
X024509Y018962D02*
X024724Y018962D01*
X024679Y019120D02*
X024554Y019120D01*
X024554Y019279D02*
X024679Y019279D01*
X024679Y019437D02*
X024554Y019437D01*
X024554Y019596D02*
X024679Y019596D01*
X024679Y020071D02*
X024554Y020071D01*
X024554Y020230D02*
X024679Y020230D01*
X024679Y020388D02*
X024554Y020388D01*
X024554Y020547D02*
X024679Y020547D01*
X024690Y020705D02*
X024543Y020705D01*
X025543Y020705D02*
X025690Y020705D01*
X025679Y020547D02*
X025554Y020547D01*
X025554Y020388D02*
X025679Y020388D01*
X025679Y020230D02*
X025554Y020230D01*
X025554Y020071D02*
X025679Y020071D01*
X025679Y019596D02*
X025554Y019596D01*
X025554Y019437D02*
X025679Y019437D01*
X025679Y019279D02*
X025554Y019279D01*
X025554Y019120D02*
X025679Y019120D01*
X025724Y018962D02*
X025509Y018962D01*
X026509Y018962D02*
X026724Y018962D01*
X026679Y019120D02*
X026554Y019120D01*
X026554Y019279D02*
X026679Y019279D01*
X026679Y019437D02*
X026554Y019437D01*
X026554Y019596D02*
X026679Y019596D01*
X026679Y020071D02*
X026554Y020071D01*
X026554Y020230D02*
X026679Y020230D01*
X026679Y020388D02*
X026554Y020388D01*
X026554Y020547D02*
X026679Y020547D01*
X026690Y020705D02*
X026543Y020705D01*
X027543Y020705D02*
X027690Y020705D01*
X027679Y020547D02*
X027554Y020547D01*
X027554Y020388D02*
X027679Y020388D01*
X027679Y020230D02*
X027554Y020230D01*
X027554Y020071D02*
X027679Y020071D01*
X027679Y019596D02*
X027554Y019596D01*
X027554Y019437D02*
X027679Y019437D01*
X027679Y019279D02*
X027554Y019279D01*
X027554Y019120D02*
X027679Y019120D01*
X027724Y018962D02*
X027509Y018962D01*
X028509Y018962D02*
X028724Y018962D01*
X028679Y019120D02*
X028554Y019120D01*
X028554Y019279D02*
X028679Y019279D01*
X028679Y019437D02*
X028554Y019437D01*
X028554Y019596D02*
X028679Y019596D01*
X028679Y020071D02*
X028554Y020071D01*
X028554Y020230D02*
X028679Y020230D01*
X028679Y020388D02*
X028554Y020388D01*
X028554Y020547D02*
X028679Y020547D01*
X028690Y020705D02*
X028543Y020705D01*
D14*
X015727Y007900D03*
X015007Y008020D03*
X015727Y007300D03*
X006847Y004660D03*
X030127Y006460D03*
X032407Y007180D03*
D15*
X015727Y007300D02*
X015007Y008020D01*
M02*
