%
M48
M72
T01C0.0200
T02C0.0315
T03C0.0320
%
T01
X15733Y7301
X17653Y4301
T02
X7123Y1351
X8123Y1351
X9123Y1351
X10123Y1351
X11123Y1351
X12123Y1351
X13123Y1351
X14123Y1351
X15123Y1351
X16123Y1351
X17123Y1351
X18123Y1351
X19123Y1351
X20123Y1351
X21123Y1351
X22123Y1351
X23123Y1351
X24123Y1351
X25123Y1351
X26123Y1351
X27123Y1351
X28123Y1351
X29123Y1351
X29123Y2351
X28123Y2351
X27123Y2351
X26123Y2351
X25123Y2351
X24123Y2351
X23123Y2351
X22123Y2351
X21123Y2351
X20123Y2351
X19123Y2351
X18123Y2351
X17123Y2351
X16123Y2351
X15123Y2351
X14123Y2351
X13123Y2351
X12123Y2351
X11123Y2351
X10123Y2351
X9123Y2351
X8123Y2351
X7123Y2351
X7123Y19351
X8123Y19351
X9123Y19351
X10123Y19351
X11123Y19351
X12123Y19351
X13123Y19351
X14123Y19351
X15123Y19351
X16123Y19351
X17123Y19351
X18123Y19351
X19123Y19351
X20123Y19351
X21123Y19351
X22123Y19351
X23123Y19351
X24123Y19351
X25123Y19351
X26123Y19351
X27123Y19351
X28123Y19351
X29123Y19351
X29123Y20351
X28123Y20351
X27123Y20351
X26123Y20351
X25123Y20351
X24123Y20351
X23123Y20351
X22123Y20351
X21123Y20351
X20123Y20351
X19123Y20351
X18123Y20351
X17123Y20351
X16123Y20351
X15123Y20351
X14123Y20351
X13123Y20351
X12123Y20351
X11123Y20351
X10123Y20351
X9123Y20351
X8123Y20351
X7123Y20351
T03
X4373Y6101
X4373Y5101
X1373Y5101
X1373Y6101
M30
