G75*
G70*
%OFA0B0*%
%FSLAX24Y24*%
%IPPOS*%
%LPD*%
%AMOC8*
5,1,8,0,0,1.08239X$1,22.5*
%
%ADD10C,0.0000*%
%ADD11R,0.0984X0.0315*%
%ADD12R,0.0657X0.0315*%
%ADD13R,0.0315X0.0657*%
%ADD14R,0.0394X0.0433*%
%ADD15R,0.0433X0.0394*%
%ADD16R,0.0433X0.0315*%
%ADD17R,0.0472X0.0315*%
%ADD18R,0.0236X0.0157*%
%ADD19R,0.0630X0.0945*%
%ADD20R,0.0866X0.0236*%
D10*
X002867Y000100D02*
X029367Y000100D01*
X029605Y000106D01*
X029842Y000123D01*
X030079Y000151D01*
X030313Y000190D01*
X030546Y000241D01*
X030776Y000303D01*
X031002Y000375D01*
X031225Y000458D01*
X031444Y000552D01*
X031658Y000656D01*
X031867Y000770D01*
X032070Y000894D01*
X032267Y001027D01*
X032458Y001170D01*
X032641Y001321D01*
X032817Y001481D01*
X032986Y001650D01*
X033146Y001826D01*
X033297Y002009D01*
X033440Y002200D01*
X033573Y002397D01*
X033697Y002600D01*
X033811Y002809D01*
X033915Y003023D01*
X034009Y003242D01*
X034092Y003465D01*
X034164Y003691D01*
X034226Y003921D01*
X034277Y004154D01*
X034316Y004388D01*
X034344Y004625D01*
X034361Y004862D01*
X034367Y005100D01*
X034367Y016600D01*
X034361Y016838D01*
X034344Y017075D01*
X034316Y017312D01*
X034277Y017546D01*
X034226Y017779D01*
X034164Y018009D01*
X034092Y018235D01*
X034009Y018458D01*
X033915Y018677D01*
X033811Y018891D01*
X033697Y019100D01*
X033573Y019303D01*
X033440Y019500D01*
X033297Y019691D01*
X033146Y019874D01*
X032986Y020050D01*
X032817Y020219D01*
X032641Y020379D01*
X032458Y020530D01*
X032267Y020673D01*
X032070Y020806D01*
X031867Y020930D01*
X031658Y021044D01*
X031444Y021148D01*
X031225Y021242D01*
X031002Y021325D01*
X030776Y021397D01*
X030546Y021459D01*
X030313Y021510D01*
X030079Y021549D01*
X029842Y021577D01*
X029605Y021594D01*
X029367Y021600D01*
X002117Y021600D01*
X002117Y015350D01*
X008367Y015350D01*
X008367Y008350D01*
X000367Y008350D01*
X000367Y002600D01*
X000370Y002481D01*
X000378Y002362D01*
X000392Y002244D01*
X000412Y002127D01*
X000437Y002011D01*
X000468Y001896D01*
X000504Y001782D01*
X000546Y001671D01*
X000593Y001561D01*
X000645Y001454D01*
X000702Y001350D01*
X000764Y001248D01*
X000831Y001150D01*
X000902Y001055D01*
X000978Y000963D01*
X001058Y000875D01*
X001142Y000791D01*
X001230Y000711D01*
X001322Y000635D01*
X001417Y000564D01*
X001515Y000497D01*
X001617Y000435D01*
X001721Y000378D01*
X001828Y000326D01*
X001938Y000279D01*
X002049Y000237D01*
X002163Y000201D01*
X002278Y000170D01*
X002394Y000145D01*
X002511Y000125D01*
X002629Y000111D01*
X002748Y000103D01*
X002867Y000100D01*
X015117Y010600D02*
X015117Y017100D01*
X021617Y017100D01*
X021617Y010600D01*
X015117Y010600D01*
D11*
X029967Y008100D03*
D12*
X031430Y008100D03*
D13*
X031117Y007287D03*
X030617Y007287D03*
X030117Y007287D03*
X030117Y008913D03*
X030617Y008913D03*
X031117Y008913D03*
D14*
X032367Y008435D03*
X032367Y007765D03*
D15*
X022134Y005596D03*
X017201Y003850D03*
X016532Y003850D03*
X016282Y004850D03*
X016951Y004850D03*
D16*
X023603Y005344D03*
X023603Y005856D03*
D17*
X023117Y004454D03*
X023117Y003746D03*
D18*
X017418Y007456D03*
X017418Y007850D03*
X017418Y008244D03*
X016315Y008244D03*
X016315Y007850D03*
X016315Y007456D03*
D19*
X016867Y007850D03*
D20*
X008890Y006600D03*
X008890Y006100D03*
X008890Y005600D03*
X008890Y005100D03*
X006843Y005100D03*
X006843Y005600D03*
X006843Y006100D03*
X006843Y006600D03*
M02*
