G75*
G70*
%OFA0B0*%
%FSLAX24Y24*%
%IPPOS*%
%LPD*%
%AMOC8*
5,1,8,0,0,1.08239X$1,22.5*
%
%ADD10R,0.0635X0.0635*%
%ADD11R,0.0395X0.1064*%
%ADD12R,0.0395X0.0737*%
%ADD13R,0.0737X0.0395*%
%ADD14R,0.0513X0.0474*%
%ADD15R,0.0513X0.0395*%
%ADD16R,0.0552X0.0395*%
%ADD17R,0.0316X0.0237*%
%ADD18R,0.0710X0.1025*%
%ADD19R,0.0946X0.0316*%
%ADD20C,0.0640*%
D10*
X007123Y001351D03*
X008123Y001351D03*
X009123Y001351D03*
X010123Y001351D03*
X011123Y001351D03*
X012123Y001351D03*
X013123Y001351D03*
X014123Y001351D03*
X015123Y001351D03*
X016123Y001351D03*
X017123Y001351D03*
X018123Y001351D03*
X019123Y001351D03*
X020123Y001351D03*
X021123Y001351D03*
X022123Y001351D03*
X023123Y001351D03*
X024123Y001351D03*
X025123Y001351D03*
X026123Y001351D03*
X027123Y001351D03*
X028123Y001351D03*
X029123Y001351D03*
X029123Y002351D03*
X028123Y002351D03*
X027123Y002351D03*
X026123Y002351D03*
X025123Y002351D03*
X024123Y002351D03*
X023123Y002351D03*
X022123Y002351D03*
X021123Y002351D03*
X020123Y002351D03*
X019123Y002351D03*
X018123Y002351D03*
X017123Y002351D03*
X016123Y002351D03*
X015123Y002351D03*
X014123Y002351D03*
X013123Y002351D03*
X012123Y002351D03*
X011123Y002351D03*
X010123Y002351D03*
X009123Y002351D03*
X008123Y002351D03*
X007123Y002351D03*
X007123Y019351D03*
X008123Y019351D03*
X009123Y019351D03*
X010123Y019351D03*
X011123Y019351D03*
X012123Y019351D03*
X013123Y019351D03*
X014123Y019351D03*
X015123Y019351D03*
X016123Y019351D03*
X017123Y019351D03*
X018123Y019351D03*
X019123Y019351D03*
X020123Y019351D03*
X021123Y019351D03*
X022123Y019351D03*
X023123Y019351D03*
X024123Y019351D03*
X025123Y019351D03*
X026123Y019351D03*
X027123Y019351D03*
X028123Y019351D03*
X029123Y019351D03*
X029123Y020351D03*
X028123Y020351D03*
X027123Y020351D03*
X026123Y020351D03*
X025123Y020351D03*
X024123Y020351D03*
X023123Y020351D03*
X022123Y020351D03*
X021123Y020351D03*
X020123Y020351D03*
X019123Y020351D03*
X018123Y020351D03*
X017123Y020351D03*
X016123Y020351D03*
X015123Y020351D03*
X014123Y020351D03*
X013123Y020351D03*
X012123Y020351D03*
X011123Y020351D03*
X010123Y020351D03*
X009123Y020351D03*
X008123Y020351D03*
X007123Y020351D03*
D11*
X030623Y008750D03*
D12*
X030623Y007288D03*
D13*
X029810Y007601D03*
X029810Y008101D03*
X029810Y008601D03*
X031436Y008601D03*
X031436Y008101D03*
X031436Y007601D03*
D14*
X030958Y005851D03*
X030288Y005851D03*
X022141Y005597D03*
X017208Y003851D03*
X016538Y003851D03*
X016288Y004851D03*
X016958Y004851D03*
D15*
X023609Y005345D03*
X023609Y005857D03*
D16*
X023123Y004455D03*
X023123Y003746D03*
D17*
X017424Y007457D03*
X017424Y007851D03*
X017424Y008244D03*
X016322Y008244D03*
X016322Y007851D03*
X016322Y007457D03*
D18*
X016873Y007851D03*
D19*
X008897Y006601D03*
X008897Y006101D03*
X008897Y005601D03*
X008897Y005101D03*
X006849Y005101D03*
X006849Y005601D03*
X006849Y006101D03*
X006849Y006601D03*
D20*
X004653Y006101D02*
X004093Y006101D01*
X004093Y005101D02*
X004653Y005101D01*
X001653Y005101D02*
X001093Y005101D01*
X001093Y006101D02*
X001653Y006101D01*
M02*
