G75*
G70*
%OFA0B0*%
%FSLAX24Y24*%
%IPPOS*%
%LPD*%
%AMOC8*
5,1,8,0,0,1.08239X$1,22.5*
%
%ADD10C,0.0000*%
%ADD11R,0.0515X0.0515*%
%ADD12C,0.0520*%
%ADD13C,0.0060*%
%ADD14C,0.0240*%
%ADD15C,0.0240*%
%ADD16C,0.0060*%
D10*
X006100Y000850D02*
X006100Y004100D01*
X006098Y004144D01*
X006092Y004187D01*
X006083Y004229D01*
X006070Y004271D01*
X006053Y004311D01*
X006033Y004350D01*
X006010Y004387D01*
X005983Y004421D01*
X005954Y004454D01*
X005921Y004483D01*
X005887Y004510D01*
X005850Y004533D01*
X005811Y004553D01*
X005771Y004570D01*
X005729Y004583D01*
X005687Y004592D01*
X005644Y004598D01*
X005600Y004600D01*
X002600Y004600D01*
X002481Y004603D01*
X002362Y004611D01*
X002244Y004625D01*
X002127Y004645D01*
X002011Y004670D01*
X001896Y004701D01*
X001782Y004737D01*
X001671Y004779D01*
X001561Y004826D01*
X001454Y004878D01*
X001350Y004935D01*
X001248Y004997D01*
X001150Y005064D01*
X001055Y005135D01*
X000963Y005211D01*
X000875Y005291D01*
X000791Y005375D01*
X000711Y005463D01*
X000635Y005555D01*
X000564Y005650D01*
X000497Y005748D01*
X000435Y005850D01*
X000378Y005954D01*
X000326Y006061D01*
X000279Y006171D01*
X000237Y006282D01*
X000201Y006396D01*
X000170Y006511D01*
X000145Y006627D01*
X000125Y006744D01*
X000111Y006862D01*
X000103Y006981D01*
X000100Y007100D01*
X000100Y012850D01*
X008100Y012850D01*
X008100Y014350D01*
X008102Y014404D01*
X008108Y014457D01*
X008117Y014509D01*
X008130Y014561D01*
X008147Y014612D01*
X008168Y014662D01*
X008192Y014709D01*
X008219Y014755D01*
X008250Y014799D01*
X008283Y014841D01*
X008320Y014880D01*
X008359Y014917D01*
X008401Y014950D01*
X008445Y014981D01*
X008491Y015008D01*
X008538Y015032D01*
X008588Y015053D01*
X008639Y015070D01*
X008691Y015083D01*
X008743Y015092D01*
X008796Y015098D01*
X008850Y015100D01*
X033350Y015100D01*
X033404Y015098D01*
X033457Y015092D01*
X033509Y015083D01*
X033561Y015070D01*
X033612Y015053D01*
X033662Y015032D01*
X033709Y015008D01*
X033755Y014981D01*
X033799Y014950D01*
X033841Y014917D01*
X033880Y014880D01*
X033917Y014841D01*
X033950Y014799D01*
X033981Y014755D01*
X034008Y014709D01*
X034032Y014662D01*
X034053Y014612D01*
X034070Y014561D01*
X034083Y014509D01*
X034092Y014457D01*
X034098Y014404D01*
X034100Y014350D01*
X034100Y009600D01*
X034094Y009362D01*
X034077Y009125D01*
X034049Y008888D01*
X034010Y008654D01*
X033959Y008421D01*
X033897Y008191D01*
X033825Y007965D01*
X033742Y007742D01*
X033648Y007523D01*
X033544Y007309D01*
X033430Y007100D01*
X033306Y006897D01*
X033173Y006700D01*
X033030Y006509D01*
X032879Y006326D01*
X032719Y006150D01*
X032550Y005981D01*
X032374Y005821D01*
X032191Y005670D01*
X032000Y005527D01*
X031803Y005394D01*
X031600Y005270D01*
X031391Y005156D01*
X031177Y005052D01*
X030958Y004958D01*
X030735Y004875D01*
X030509Y004803D01*
X030279Y004741D01*
X030046Y004690D01*
X029812Y004651D01*
X029575Y004623D01*
X029338Y004606D01*
X029100Y004600D01*
X021350Y004600D01*
X021306Y004598D01*
X021263Y004592D01*
X021221Y004583D01*
X021179Y004570D01*
X021139Y004553D01*
X021100Y004533D01*
X021063Y004510D01*
X021029Y004483D01*
X020996Y004454D01*
X020967Y004421D01*
X020940Y004387D01*
X020917Y004350D01*
X020897Y004311D01*
X020880Y004271D01*
X020867Y004229D01*
X020858Y004187D01*
X020852Y004144D01*
X020850Y004100D01*
X020850Y001350D01*
X020848Y001282D01*
X020843Y001215D01*
X020834Y001148D01*
X020821Y001081D01*
X020804Y001016D01*
X020785Y000951D01*
X020761Y000887D01*
X020734Y000825D01*
X020704Y000764D01*
X020671Y000706D01*
X020635Y000649D01*
X020595Y000594D01*
X020553Y000541D01*
X020507Y000490D01*
X020460Y000443D01*
X020409Y000397D01*
X020356Y000355D01*
X020301Y000315D01*
X020244Y000279D01*
X020186Y000246D01*
X020125Y000216D01*
X020063Y000189D01*
X019999Y000165D01*
X019934Y000146D01*
X019869Y000129D01*
X019802Y000116D01*
X019735Y000107D01*
X019668Y000102D01*
X019600Y000100D01*
X006850Y000100D01*
X006796Y000102D01*
X006743Y000108D01*
X006691Y000117D01*
X006639Y000130D01*
X006588Y000147D01*
X006538Y000168D01*
X006491Y000192D01*
X006445Y000219D01*
X006401Y000250D01*
X006359Y000283D01*
X006320Y000320D01*
X006283Y000359D01*
X006250Y000401D01*
X006219Y000445D01*
X006192Y000491D01*
X006168Y000538D01*
X006147Y000588D01*
X006130Y000639D01*
X006117Y000691D01*
X006108Y000743D01*
X006102Y000796D01*
X006100Y000850D01*
D11*
X006850Y005850D03*
X007850Y005850D03*
X008850Y005850D03*
X009850Y005850D03*
X010850Y005850D03*
X011850Y005850D03*
X012850Y005850D03*
X013850Y005850D03*
X014850Y005850D03*
X015850Y005850D03*
X016850Y005850D03*
X017850Y005850D03*
X018850Y005850D03*
X019850Y005850D03*
X020850Y005850D03*
X021850Y005850D03*
X022850Y005850D03*
X023850Y005850D03*
X024850Y005850D03*
X025850Y005850D03*
X026850Y005850D03*
X027850Y005850D03*
X028850Y005850D03*
X028850Y006850D03*
X027850Y006850D03*
X026850Y006850D03*
X025850Y006850D03*
X024850Y006850D03*
X023850Y006850D03*
X022850Y006850D03*
X021850Y006850D03*
X020850Y006850D03*
X019850Y006850D03*
X018850Y006850D03*
X017850Y006850D03*
X016850Y006850D03*
X015850Y006850D03*
X014850Y006850D03*
X013850Y006850D03*
X012850Y006850D03*
X011850Y006850D03*
X010850Y006850D03*
X009850Y006850D03*
X008850Y006850D03*
X007850Y006850D03*
X006850Y006850D03*
D12*
X005110Y009600D02*
X004590Y009600D01*
X004590Y010600D02*
X005110Y010600D01*
X002110Y010600D02*
X001590Y010600D01*
X001590Y009600D02*
X002110Y009600D01*
D13*
X001880Y009627D02*
X004240Y009627D01*
X004240Y009670D02*
X004240Y009530D01*
X004293Y009402D01*
X004392Y009303D01*
X004520Y009250D01*
X005180Y009250D01*
X005308Y009303D01*
X005407Y009402D01*
X005460Y009530D01*
X005460Y009670D01*
X005407Y009798D01*
X005308Y009897D01*
X005180Y009950D01*
X004520Y009950D01*
X004392Y009897D01*
X004293Y009798D01*
X004240Y009670D01*
X004247Y009685D02*
X002491Y009685D01*
X002485Y009714D02*
X002456Y009785D01*
X002413Y009849D01*
X002359Y009903D01*
X002295Y009946D01*
X002224Y009975D01*
X002148Y009990D01*
X001880Y009990D01*
X001880Y009630D01*
X001820Y009630D01*
X001820Y009990D01*
X001552Y009990D01*
X001476Y009975D01*
X001405Y009946D01*
X001341Y009903D01*
X001287Y009849D01*
X001244Y009785D01*
X001215Y009714D01*
X001200Y009638D01*
X001200Y009630D01*
X001820Y009630D01*
X001820Y009570D01*
X001880Y009570D01*
X001880Y009630D01*
X002500Y009630D01*
X002500Y009638D01*
X002485Y009714D01*
X002473Y009744D02*
X004271Y009744D01*
X004297Y009802D02*
X002444Y009802D01*
X002401Y009860D02*
X004356Y009860D01*
X004445Y009919D02*
X002335Y009919D01*
X002213Y009977D02*
X033350Y009977D01*
X033350Y009919D02*
X005255Y009919D01*
X005344Y009860D02*
X033350Y009860D01*
X033350Y009802D02*
X005403Y009802D01*
X005429Y009744D02*
X033350Y009744D01*
X033350Y009685D02*
X005453Y009685D01*
X005460Y009627D02*
X033350Y009627D01*
X033350Y009569D02*
X005460Y009569D01*
X005452Y009510D02*
X033350Y009510D01*
X033350Y009452D02*
X005427Y009452D01*
X005399Y009394D02*
X033350Y009394D01*
X033350Y009350D02*
X033328Y008932D01*
X033263Y008518D01*
X033154Y008114D01*
X033004Y007723D01*
X032814Y007350D01*
X032586Y006999D01*
X032323Y006673D01*
X032027Y006377D01*
X031701Y006114D01*
X031350Y005886D01*
X030977Y005696D01*
X030586Y005546D01*
X030182Y005437D01*
X029768Y005372D01*
X029350Y005350D01*
X020850Y005350D01*
X020733Y005341D01*
X020618Y005313D01*
X020510Y005268D01*
X020409Y005207D01*
X020320Y005130D01*
X020243Y005041D01*
X020182Y004940D01*
X020137Y004832D01*
X020109Y004717D01*
X020100Y004600D01*
X020095Y004551D01*
X020081Y004504D01*
X020058Y004461D01*
X020027Y004423D01*
X019989Y004392D01*
X019946Y004369D01*
X019899Y004355D01*
X019850Y004350D01*
X007100Y004350D01*
X007051Y004355D01*
X007004Y004369D01*
X006961Y004392D01*
X006923Y004423D01*
X006892Y004461D01*
X006869Y004504D01*
X006855Y004551D01*
X006850Y004600D01*
X006850Y004850D01*
X006842Y004937D01*
X006820Y005021D01*
X006783Y005100D01*
X006733Y005171D01*
X006671Y005233D01*
X006600Y005283D01*
X006521Y005320D01*
X006437Y005342D01*
X006350Y005350D01*
X002600Y005350D01*
X002372Y005365D01*
X002147Y005410D01*
X001930Y005483D01*
X001725Y005584D01*
X001535Y005712D01*
X001363Y005863D01*
X001212Y006035D01*
X001084Y006225D01*
X000983Y006430D01*
X000910Y006647D01*
X000865Y006872D01*
X000850Y007100D01*
X000850Y012100D01*
X033350Y012100D01*
X033350Y009350D01*
X033349Y009335D02*
X005340Y009335D01*
X005245Y009277D02*
X033346Y009277D01*
X033343Y009219D02*
X002192Y009219D01*
X002224Y009225D02*
X002295Y009254D01*
X002359Y009297D01*
X002413Y009351D01*
X002456Y009415D01*
X002485Y009486D01*
X002500Y009562D01*
X002500Y009570D01*
X001880Y009570D01*
X001880Y009210D01*
X002148Y009210D01*
X002224Y009225D01*
X002328Y009277D02*
X004455Y009277D01*
X004360Y009335D02*
X002397Y009335D01*
X002441Y009394D02*
X004301Y009394D01*
X004273Y009452D02*
X002471Y009452D01*
X002490Y009510D02*
X004248Y009510D01*
X004240Y009569D02*
X002500Y009569D01*
X001880Y009569D02*
X001820Y009569D01*
X001820Y009570D02*
X001820Y009210D01*
X001552Y009210D01*
X001476Y009225D01*
X001405Y009254D01*
X001341Y009297D01*
X001287Y009351D01*
X001244Y009415D01*
X001215Y009486D01*
X001200Y009562D01*
X001200Y009570D01*
X001820Y009570D01*
X001820Y009627D02*
X000850Y009627D01*
X000850Y009569D02*
X001200Y009569D01*
X001210Y009510D02*
X000850Y009510D01*
X000850Y009452D02*
X001229Y009452D01*
X001259Y009394D02*
X000850Y009394D01*
X000850Y009335D02*
X001303Y009335D01*
X001372Y009277D02*
X000850Y009277D01*
X000850Y009219D02*
X001508Y009219D01*
X001820Y009219D02*
X001880Y009219D01*
X001880Y009277D02*
X001820Y009277D01*
X001820Y009335D02*
X001880Y009335D01*
X001880Y009394D02*
X001820Y009394D01*
X001820Y009452D02*
X001880Y009452D01*
X001880Y009510D02*
X001820Y009510D01*
X001820Y009685D02*
X001880Y009685D01*
X001880Y009744D02*
X001820Y009744D01*
X001820Y009802D02*
X001880Y009802D01*
X001880Y009860D02*
X001820Y009860D01*
X001820Y009919D02*
X001880Y009919D01*
X001880Y009977D02*
X001820Y009977D01*
X001487Y009977D02*
X000850Y009977D01*
X000850Y009919D02*
X001365Y009919D01*
X001299Y009860D02*
X000850Y009860D01*
X000850Y009802D02*
X001256Y009802D01*
X001227Y009744D02*
X000850Y009744D01*
X000850Y009685D02*
X001209Y009685D01*
X000850Y010035D02*
X033350Y010035D01*
X033350Y010094D02*
X000850Y010094D01*
X000850Y010152D02*
X033350Y010152D01*
X033350Y010210D02*
X002150Y010210D01*
X002148Y010210D02*
X002224Y010225D01*
X002295Y010254D01*
X002359Y010297D01*
X002413Y010351D01*
X002456Y010415D01*
X002485Y010486D01*
X002500Y010562D01*
X002500Y010570D01*
X001880Y010570D01*
X001880Y010630D01*
X001820Y010630D01*
X001820Y010990D01*
X001552Y010990D01*
X001476Y010975D01*
X001405Y010946D01*
X001341Y010903D01*
X001287Y010849D01*
X001244Y010785D01*
X001215Y010714D01*
X001200Y010638D01*
X001200Y010630D01*
X001820Y010630D01*
X001820Y010570D01*
X001880Y010570D01*
X001880Y010210D01*
X002148Y010210D01*
X002316Y010269D02*
X004475Y010269D01*
X004520Y010250D02*
X004392Y010303D01*
X004293Y010402D01*
X004240Y010530D01*
X004240Y010670D01*
X004293Y010798D01*
X004392Y010897D01*
X004520Y010950D01*
X005180Y010950D01*
X005308Y010897D01*
X005407Y010798D01*
X005460Y010670D01*
X005460Y010530D01*
X005407Y010402D01*
X005308Y010303D01*
X005180Y010250D01*
X004520Y010250D01*
X004368Y010327D02*
X002389Y010327D01*
X002436Y010386D02*
X004310Y010386D01*
X004276Y010444D02*
X002467Y010444D01*
X002488Y010502D02*
X004252Y010502D01*
X004240Y010561D02*
X002500Y010561D01*
X002500Y010630D02*
X002500Y010638D01*
X002485Y010714D01*
X002456Y010785D01*
X002413Y010849D01*
X002359Y010903D01*
X002295Y010946D01*
X002224Y010975D01*
X002148Y010990D01*
X001880Y010990D01*
X001880Y010630D01*
X002500Y010630D01*
X002492Y010677D02*
X004243Y010677D01*
X004240Y010619D02*
X001880Y010619D01*
X001880Y010677D02*
X001820Y010677D01*
X001820Y010619D02*
X000850Y010619D01*
X000850Y010677D02*
X001208Y010677D01*
X001224Y010736D02*
X000850Y010736D01*
X000850Y010794D02*
X001251Y010794D01*
X001291Y010852D02*
X000850Y010852D01*
X000850Y010911D02*
X001353Y010911D01*
X001462Y010969D02*
X000850Y010969D01*
X000850Y011027D02*
X033350Y011027D01*
X033350Y010969D02*
X002238Y010969D01*
X002347Y010911D02*
X004425Y010911D01*
X004347Y010852D02*
X002409Y010852D01*
X002449Y010794D02*
X004292Y010794D01*
X004267Y010736D02*
X002476Y010736D01*
X001880Y010736D02*
X001820Y010736D01*
X001820Y010794D02*
X001880Y010794D01*
X001880Y010852D02*
X001820Y010852D01*
X001820Y010911D02*
X001880Y010911D01*
X001880Y010969D02*
X001820Y010969D01*
X001820Y010570D02*
X001200Y010570D01*
X001200Y010562D01*
X001215Y010486D01*
X001244Y010415D01*
X001287Y010351D01*
X001341Y010297D01*
X001405Y010254D01*
X001476Y010225D01*
X001552Y010210D01*
X001820Y010210D01*
X001820Y010570D01*
X001820Y010561D02*
X001880Y010561D01*
X001880Y010502D02*
X001820Y010502D01*
X001820Y010444D02*
X001880Y010444D01*
X001880Y010386D02*
X001820Y010386D01*
X001820Y010327D02*
X001880Y010327D01*
X001880Y010269D02*
X001820Y010269D01*
X001820Y010210D02*
X001880Y010210D01*
X001550Y010210D02*
X000850Y010210D01*
X000850Y010269D02*
X001384Y010269D01*
X001311Y010327D02*
X000850Y010327D01*
X000850Y010386D02*
X001264Y010386D01*
X001233Y010444D02*
X000850Y010444D01*
X000850Y010502D02*
X001212Y010502D01*
X001200Y010561D02*
X000850Y010561D01*
X000850Y011086D02*
X033350Y011086D01*
X033350Y011144D02*
X000850Y011144D01*
X000850Y011202D02*
X033350Y011202D01*
X033350Y011261D02*
X000850Y011261D01*
X000850Y011319D02*
X033350Y011319D01*
X033350Y011377D02*
X000850Y011377D01*
X000850Y011436D02*
X033350Y011436D01*
X033350Y011494D02*
X000850Y011494D01*
X000850Y011552D02*
X033350Y011552D01*
X033350Y011611D02*
X000850Y011611D01*
X000850Y011669D02*
X033350Y011669D01*
X033350Y011727D02*
X000850Y011727D01*
X000850Y011786D02*
X033350Y011786D01*
X033350Y011844D02*
X000850Y011844D01*
X000850Y011902D02*
X033350Y011902D01*
X033350Y011961D02*
X000850Y011961D01*
X000850Y012019D02*
X033350Y012019D01*
X033350Y012077D02*
X000850Y012077D01*
X005275Y010911D02*
X033350Y010911D01*
X033350Y010852D02*
X005353Y010852D01*
X005408Y010794D02*
X033350Y010794D01*
X033350Y010736D02*
X005433Y010736D01*
X005457Y010677D02*
X033350Y010677D01*
X033350Y010619D02*
X005460Y010619D01*
X005460Y010561D02*
X033350Y010561D01*
X033350Y010502D02*
X005448Y010502D01*
X005424Y010444D02*
X033350Y010444D01*
X033350Y010386D02*
X005390Y010386D01*
X005332Y010327D02*
X033350Y010327D01*
X033350Y010269D02*
X005225Y010269D01*
X000850Y009160D02*
X033340Y009160D01*
X033337Y009102D02*
X000850Y009102D01*
X000850Y009044D02*
X033334Y009044D01*
X033331Y008985D02*
X000850Y008985D01*
X000850Y008927D02*
X033327Y008927D01*
X033318Y008869D02*
X000850Y008869D01*
X000850Y008810D02*
X033309Y008810D01*
X033300Y008752D02*
X000850Y008752D01*
X000850Y008694D02*
X033290Y008694D01*
X033281Y008635D02*
X000850Y008635D01*
X000850Y008577D02*
X033272Y008577D01*
X033263Y008519D02*
X000850Y008519D01*
X000850Y008460D02*
X033247Y008460D01*
X033231Y008402D02*
X000850Y008402D01*
X000850Y008344D02*
X033216Y008344D01*
X033200Y008285D02*
X000850Y008285D01*
X000850Y008227D02*
X033184Y008227D01*
X033169Y008168D02*
X000850Y008168D01*
X000850Y008110D02*
X033153Y008110D01*
X033130Y008052D02*
X000850Y008052D01*
X000850Y007993D02*
X033108Y007993D01*
X033086Y007935D02*
X000850Y007935D01*
X000850Y007877D02*
X033063Y007877D01*
X033041Y007818D02*
X000850Y007818D01*
X000850Y007760D02*
X033018Y007760D01*
X032993Y007702D02*
X000850Y007702D01*
X000850Y007643D02*
X032964Y007643D01*
X032934Y007585D02*
X013362Y007585D01*
X013327Y007620D02*
X013153Y007620D01*
X013030Y007497D01*
X013030Y007323D01*
X013153Y007200D01*
X013327Y007200D01*
X013417Y007290D01*
X014990Y007290D01*
X015083Y007197D01*
X014555Y007197D01*
X014503Y007145D01*
X014503Y006555D01*
X014555Y006503D01*
X015145Y006503D01*
X015197Y006555D01*
X015197Y007083D01*
X015400Y006880D01*
X015470Y006810D01*
X015503Y006810D01*
X015503Y006555D01*
X015555Y006503D01*
X016145Y006503D01*
X016197Y006555D01*
X016197Y007145D01*
X016145Y007197D01*
X015555Y007197D01*
X015503Y007145D01*
X015503Y007117D01*
X015090Y007530D01*
X013417Y007530D01*
X013327Y007620D01*
X013118Y007585D02*
X000850Y007585D01*
X000850Y007527D02*
X013060Y007527D01*
X013030Y007468D02*
X000850Y007468D01*
X000850Y007410D02*
X013030Y007410D01*
X013030Y007352D02*
X000850Y007352D01*
X000850Y007293D02*
X013060Y007293D01*
X013118Y007235D02*
X007133Y007235D01*
X007125Y007237D02*
X006880Y007237D01*
X006880Y006880D01*
X006820Y006880D01*
X006820Y007237D01*
X006575Y007237D01*
X006542Y007229D01*
X006513Y007211D01*
X006489Y007187D01*
X006471Y007158D01*
X006463Y007125D01*
X006463Y006880D01*
X006820Y006880D01*
X006820Y006820D01*
X006880Y006820D01*
X006880Y006880D01*
X007237Y006880D01*
X007237Y007125D01*
X007229Y007158D01*
X007211Y007187D01*
X007187Y007211D01*
X007158Y007229D01*
X007125Y007237D01*
X007218Y007177D02*
X007535Y007177D01*
X007555Y007197D02*
X007503Y007145D01*
X007503Y006555D01*
X007555Y006503D01*
X008145Y006503D01*
X008197Y006555D01*
X008197Y007145D01*
X008145Y007197D01*
X007555Y007197D01*
X007503Y007118D02*
X007237Y007118D01*
X007237Y007060D02*
X007503Y007060D01*
X007503Y007002D02*
X007237Y007002D01*
X007237Y006943D02*
X007503Y006943D01*
X007503Y006885D02*
X007237Y006885D01*
X007237Y006820D02*
X006880Y006820D01*
X006880Y006463D01*
X007125Y006463D01*
X007158Y006471D01*
X007187Y006489D01*
X007211Y006513D01*
X007229Y006542D01*
X007237Y006575D01*
X007237Y006820D01*
X007237Y006768D02*
X007503Y006768D01*
X007503Y006710D02*
X007237Y006710D01*
X007237Y006652D02*
X007503Y006652D01*
X007503Y006593D02*
X007237Y006593D01*
X007224Y006535D02*
X007523Y006535D01*
X007166Y006477D02*
X027534Y006477D01*
X027542Y006471D02*
X027575Y006463D01*
X027820Y006463D01*
X027820Y006820D01*
X027880Y006820D01*
X027880Y006880D01*
X027820Y006880D01*
X027820Y007237D01*
X027575Y007237D01*
X027542Y007229D01*
X027513Y007211D01*
X027489Y007187D01*
X027471Y007158D01*
X027463Y007125D01*
X027463Y006880D01*
X027820Y006880D01*
X027820Y006820D01*
X027463Y006820D01*
X027463Y006575D01*
X027471Y006542D01*
X027489Y006513D01*
X027513Y006489D01*
X027542Y006471D01*
X027476Y006535D02*
X027177Y006535D01*
X027197Y006555D02*
X027145Y006503D01*
X026555Y006503D01*
X026503Y006555D01*
X026503Y007145D01*
X026555Y007197D01*
X027145Y007197D01*
X027197Y007145D01*
X027197Y006555D01*
X027197Y006593D02*
X027463Y006593D01*
X027463Y006652D02*
X027197Y006652D01*
X027197Y006710D02*
X027463Y006710D01*
X027463Y006768D02*
X027197Y006768D01*
X027197Y006827D02*
X027820Y006827D01*
X027820Y006885D02*
X027880Y006885D01*
X027880Y006880D02*
X027880Y007237D01*
X028125Y007237D01*
X028158Y007229D01*
X028187Y007211D01*
X028211Y007187D01*
X028229Y007158D01*
X028237Y007125D01*
X028237Y006880D01*
X027880Y006880D01*
X027880Y006827D02*
X028820Y006827D01*
X028820Y006820D02*
X028463Y006820D01*
X028463Y006575D01*
X028471Y006542D01*
X028489Y006513D01*
X028513Y006489D01*
X028542Y006471D01*
X028575Y006463D01*
X028820Y006463D01*
X028820Y006820D01*
X028880Y006820D01*
X028880Y006880D01*
X028820Y006880D01*
X028820Y007237D01*
X028575Y007237D01*
X028542Y007229D01*
X028513Y007211D01*
X028489Y007187D01*
X028471Y007158D01*
X028463Y007125D01*
X028463Y006880D01*
X028820Y006880D01*
X028820Y006820D01*
X028820Y006768D02*
X028880Y006768D01*
X028880Y006820D02*
X028880Y006463D01*
X029125Y006463D01*
X029158Y006471D01*
X029187Y006489D01*
X029211Y006513D01*
X029229Y006542D01*
X029237Y006575D01*
X029237Y006820D01*
X028880Y006820D01*
X028880Y006827D02*
X032447Y006827D01*
X032494Y006885D02*
X029237Y006885D01*
X029237Y006880D02*
X029237Y007125D01*
X029229Y007158D01*
X029211Y007187D01*
X029187Y007211D01*
X029158Y007229D01*
X029125Y007237D01*
X028880Y007237D01*
X028880Y006880D01*
X029237Y006880D01*
X029237Y006943D02*
X032541Y006943D01*
X032588Y007002D02*
X029237Y007002D01*
X029237Y007060D02*
X032626Y007060D01*
X032664Y007118D02*
X029237Y007118D01*
X029218Y007177D02*
X032702Y007177D01*
X032739Y007235D02*
X029133Y007235D01*
X028880Y007235D02*
X028820Y007235D01*
X028820Y007177D02*
X028880Y007177D01*
X028880Y007118D02*
X028820Y007118D01*
X028820Y007060D02*
X028880Y007060D01*
X028880Y007002D02*
X028820Y007002D01*
X028820Y006943D02*
X028880Y006943D01*
X028880Y006885D02*
X028820Y006885D01*
X028820Y006710D02*
X028880Y006710D01*
X028880Y006652D02*
X028820Y006652D01*
X028820Y006593D02*
X028880Y006593D01*
X028880Y006535D02*
X028820Y006535D01*
X028820Y006477D02*
X028880Y006477D01*
X028880Y006237D02*
X028880Y005880D01*
X028820Y005880D01*
X028820Y006237D01*
X028575Y006237D01*
X028542Y006229D01*
X028513Y006211D01*
X028489Y006187D01*
X028471Y006158D01*
X028463Y006125D01*
X028463Y005880D01*
X028820Y005880D01*
X028820Y005820D01*
X028880Y005820D01*
X028880Y005880D01*
X029237Y005880D01*
X029237Y006125D01*
X029229Y006158D01*
X029211Y006187D01*
X029187Y006211D01*
X029158Y006229D01*
X029125Y006237D01*
X028880Y006237D01*
X028880Y006185D02*
X028820Y006185D01*
X028820Y006126D02*
X028880Y006126D01*
X028880Y006068D02*
X028820Y006068D01*
X028820Y006010D02*
X028880Y006010D01*
X028880Y005951D02*
X028820Y005951D01*
X028820Y005893D02*
X028880Y005893D01*
X028880Y005835D02*
X031250Y005835D01*
X031361Y005893D02*
X029237Y005893D01*
X029237Y005951D02*
X031451Y005951D01*
X031541Y006010D02*
X029237Y006010D01*
X029237Y006068D02*
X031631Y006068D01*
X031717Y006126D02*
X029237Y006126D01*
X029213Y006185D02*
X031789Y006185D01*
X031861Y006243D02*
X001075Y006243D01*
X001047Y006302D02*
X031933Y006302D01*
X032005Y006360D02*
X001018Y006360D01*
X000989Y006418D02*
X032067Y006418D01*
X032126Y006477D02*
X029166Y006477D01*
X029224Y006535D02*
X032184Y006535D01*
X032242Y006593D02*
X029237Y006593D01*
X029237Y006652D02*
X032301Y006652D01*
X032352Y006710D02*
X029237Y006710D01*
X029237Y006768D02*
X032399Y006768D01*
X032777Y007293D02*
X015326Y007293D01*
X015385Y007235D02*
X027567Y007235D01*
X027482Y007177D02*
X027165Y007177D01*
X027197Y007118D02*
X027463Y007118D01*
X027463Y007060D02*
X027197Y007060D01*
X027197Y007002D02*
X027463Y007002D01*
X027463Y006943D02*
X027197Y006943D01*
X027197Y006885D02*
X027463Y006885D01*
X027820Y006943D02*
X027880Y006943D01*
X027880Y007002D02*
X027820Y007002D01*
X027820Y007060D02*
X027880Y007060D01*
X027880Y007118D02*
X027820Y007118D01*
X027820Y007177D02*
X027880Y007177D01*
X027880Y007235D02*
X027820Y007235D01*
X028133Y007235D02*
X028567Y007235D01*
X028482Y007177D02*
X028218Y007177D01*
X028237Y007118D02*
X028463Y007118D01*
X028463Y007060D02*
X028237Y007060D01*
X028237Y007002D02*
X028463Y007002D01*
X028463Y006943D02*
X028237Y006943D01*
X028237Y006885D02*
X028463Y006885D01*
X028463Y006768D02*
X028237Y006768D01*
X028237Y006820D02*
X027880Y006820D01*
X027880Y006463D01*
X028125Y006463D01*
X028158Y006471D01*
X028187Y006489D01*
X028211Y006513D01*
X028229Y006542D01*
X028237Y006575D01*
X028237Y006820D01*
X028237Y006710D02*
X028463Y006710D01*
X028463Y006652D02*
X028237Y006652D01*
X028237Y006593D02*
X028463Y006593D01*
X028476Y006535D02*
X028224Y006535D01*
X028166Y006477D02*
X028534Y006477D01*
X028158Y006229D02*
X028125Y006237D01*
X027880Y006237D01*
X027880Y005880D01*
X027820Y005880D01*
X027820Y006237D01*
X027575Y006237D01*
X027542Y006229D01*
X027513Y006211D01*
X027489Y006187D01*
X027471Y006158D01*
X027463Y006125D01*
X027463Y005880D01*
X027820Y005880D01*
X027820Y005820D01*
X027880Y005820D01*
X027880Y005880D01*
X028237Y005880D01*
X028237Y006125D01*
X028229Y006158D01*
X028211Y006187D01*
X028187Y006211D01*
X028158Y006229D01*
X028213Y006185D02*
X028487Y006185D01*
X028463Y006126D02*
X028237Y006126D01*
X028237Y006068D02*
X028463Y006068D01*
X028463Y006010D02*
X028237Y006010D01*
X028237Y005951D02*
X028463Y005951D01*
X028463Y005893D02*
X028237Y005893D01*
X028237Y005820D02*
X027880Y005820D01*
X027880Y005463D01*
X028125Y005463D01*
X028158Y005471D01*
X028187Y005489D01*
X028211Y005513D01*
X028229Y005542D01*
X028237Y005575D01*
X028237Y005820D01*
X028237Y005776D02*
X028463Y005776D01*
X028463Y005820D02*
X028463Y005575D01*
X028471Y005542D01*
X028489Y005513D01*
X028513Y005489D01*
X028542Y005471D01*
X028575Y005463D01*
X028820Y005463D01*
X028820Y005820D01*
X028463Y005820D01*
X028463Y005718D02*
X028237Y005718D01*
X028237Y005660D02*
X028463Y005660D01*
X028463Y005601D02*
X028237Y005601D01*
X028229Y005543D02*
X028471Y005543D01*
X028519Y005485D02*
X028181Y005485D01*
X027880Y005485D02*
X027820Y005485D01*
X027820Y005463D02*
X027575Y005463D01*
X027542Y005471D01*
X027513Y005489D01*
X027489Y005513D01*
X027471Y005542D01*
X027463Y005575D01*
X027463Y005820D01*
X027820Y005820D01*
X027820Y005463D01*
X027820Y005543D02*
X027880Y005543D01*
X027880Y005601D02*
X027820Y005601D01*
X027820Y005660D02*
X027880Y005660D01*
X027880Y005718D02*
X027820Y005718D01*
X027820Y005776D02*
X027880Y005776D01*
X027880Y005835D02*
X028820Y005835D01*
X028820Y005776D02*
X028880Y005776D01*
X028880Y005820D02*
X028880Y005463D01*
X029125Y005463D01*
X029158Y005471D01*
X029187Y005489D01*
X029211Y005513D01*
X029229Y005542D01*
X029237Y005575D01*
X029237Y005820D01*
X028880Y005820D01*
X028880Y005718D02*
X028820Y005718D01*
X028820Y005660D02*
X028880Y005660D01*
X028880Y005601D02*
X028820Y005601D01*
X028820Y005543D02*
X028880Y005543D01*
X028880Y005485D02*
X028820Y005485D01*
X029181Y005485D02*
X030358Y005485D01*
X030576Y005543D02*
X029229Y005543D01*
X029237Y005601D02*
X030731Y005601D01*
X030883Y005660D02*
X029237Y005660D01*
X029237Y005718D02*
X031021Y005718D01*
X031135Y005776D02*
X029237Y005776D01*
X029694Y005368D02*
X002356Y005368D01*
X002098Y005426D02*
X030112Y005426D01*
X027880Y005893D02*
X027820Y005893D01*
X027820Y005835D02*
X027197Y005835D01*
X027197Y005893D02*
X027463Y005893D01*
X027463Y005951D02*
X027197Y005951D01*
X027197Y006010D02*
X027463Y006010D01*
X027463Y006068D02*
X027197Y006068D01*
X027197Y006126D02*
X027463Y006126D01*
X027487Y006185D02*
X027157Y006185D01*
X027145Y006197D02*
X027197Y006145D01*
X027197Y005555D01*
X027145Y005503D01*
X026555Y005503D01*
X026503Y005555D01*
X026503Y006145D01*
X026555Y006197D01*
X027145Y006197D01*
X027197Y005776D02*
X027463Y005776D01*
X027463Y005718D02*
X027197Y005718D01*
X027197Y005660D02*
X027463Y005660D01*
X027463Y005601D02*
X027197Y005601D01*
X027185Y005543D02*
X027471Y005543D01*
X027519Y005485D02*
X007181Y005485D01*
X007187Y005489D02*
X007211Y005513D01*
X007229Y005542D01*
X007237Y005575D01*
X007237Y005820D01*
X006880Y005820D01*
X006880Y005880D01*
X006820Y005880D01*
X006820Y006237D01*
X006575Y006237D01*
X006542Y006229D01*
X006513Y006211D01*
X006489Y006187D01*
X006471Y006158D01*
X006463Y006125D01*
X006463Y005880D01*
X006820Y005880D01*
X006820Y005820D01*
X006880Y005820D01*
X006880Y005463D01*
X007125Y005463D01*
X007158Y005471D01*
X007187Y005489D01*
X007229Y005543D02*
X007515Y005543D01*
X007503Y005555D02*
X007555Y005503D01*
X008145Y005503D01*
X008197Y005555D01*
X008197Y006145D01*
X008145Y006197D01*
X007555Y006197D01*
X007503Y006145D01*
X007503Y005555D01*
X007503Y005601D02*
X007237Y005601D01*
X007237Y005660D02*
X007503Y005660D01*
X007503Y005718D02*
X007237Y005718D01*
X007237Y005776D02*
X007503Y005776D01*
X007503Y005835D02*
X006880Y005835D01*
X006880Y005880D02*
X007237Y005880D01*
X007237Y006125D01*
X007229Y006158D01*
X007211Y006187D01*
X007187Y006211D01*
X007158Y006229D01*
X007125Y006237D01*
X006880Y006237D01*
X006880Y005880D01*
X006880Y005893D02*
X006820Y005893D01*
X006820Y005835D02*
X001394Y005835D01*
X001336Y005893D02*
X006463Y005893D01*
X006463Y005951D02*
X001285Y005951D01*
X001233Y006010D02*
X006463Y006010D01*
X006463Y006068D02*
X001189Y006068D01*
X001150Y006126D02*
X006463Y006126D01*
X006487Y006185D02*
X001111Y006185D01*
X000968Y006477D02*
X006534Y006477D01*
X006542Y006471D02*
X006575Y006463D01*
X006820Y006463D01*
X006820Y006820D01*
X006463Y006820D01*
X006463Y006575D01*
X006471Y006542D01*
X006489Y006513D01*
X006513Y006489D01*
X006542Y006471D01*
X006476Y006535D02*
X000948Y006535D01*
X000928Y006593D02*
X006463Y006593D01*
X006463Y006652D02*
X000909Y006652D01*
X000897Y006710D02*
X006463Y006710D01*
X006463Y006768D02*
X000886Y006768D01*
X000874Y006827D02*
X006820Y006827D01*
X006820Y006885D02*
X006880Y006885D01*
X006880Y006943D02*
X006820Y006943D01*
X006820Y007002D02*
X006880Y007002D01*
X006880Y007060D02*
X006820Y007060D01*
X006820Y007118D02*
X006880Y007118D01*
X006880Y007177D02*
X006820Y007177D01*
X006820Y007235D02*
X006880Y007235D01*
X006567Y007235D02*
X000850Y007235D01*
X000850Y007177D02*
X006482Y007177D01*
X006463Y007118D02*
X000850Y007118D01*
X000853Y007060D02*
X006463Y007060D01*
X006463Y007002D02*
X000856Y007002D01*
X000860Y006943D02*
X006463Y006943D01*
X006463Y006885D02*
X000864Y006885D01*
X001461Y005776D02*
X006463Y005776D01*
X006463Y005820D02*
X006463Y005575D01*
X006471Y005542D01*
X006489Y005513D01*
X006513Y005489D01*
X006542Y005471D01*
X006575Y005463D01*
X006820Y005463D01*
X006820Y005820D01*
X006463Y005820D01*
X006463Y005718D02*
X001527Y005718D01*
X001612Y005660D02*
X006463Y005660D01*
X006463Y005601D02*
X001700Y005601D01*
X001809Y005543D02*
X006471Y005543D01*
X006519Y005485D02*
X001927Y005485D01*
X006543Y005310D02*
X020610Y005310D01*
X020482Y005251D02*
X006645Y005251D01*
X006711Y005193D02*
X020393Y005193D01*
X020325Y005135D02*
X006759Y005135D01*
X006794Y005076D02*
X020274Y005076D01*
X020229Y005018D02*
X006821Y005018D01*
X006836Y004960D02*
X020193Y004960D01*
X020166Y004901D02*
X006846Y004901D01*
X006850Y004843D02*
X020141Y004843D01*
X020125Y004785D02*
X006850Y004785D01*
X006850Y004726D02*
X020111Y004726D01*
X020105Y004668D02*
X006850Y004668D01*
X006850Y004610D02*
X020101Y004610D01*
X020095Y004551D02*
X006855Y004551D01*
X006875Y004493D02*
X020075Y004493D01*
X020036Y004435D02*
X006914Y004435D01*
X006991Y004376D02*
X019959Y004376D01*
X020145Y005503D02*
X019555Y005503D01*
X019503Y005555D01*
X019503Y006145D01*
X019555Y006197D01*
X020145Y006197D01*
X020197Y006145D01*
X020197Y005555D01*
X020145Y005503D01*
X020185Y005543D02*
X020515Y005543D01*
X020503Y005555D02*
X020555Y005503D01*
X021145Y005503D01*
X021197Y005555D01*
X021197Y006145D01*
X021145Y006197D01*
X020555Y006197D01*
X020503Y006145D01*
X020503Y005555D01*
X020503Y005601D02*
X020197Y005601D01*
X020197Y005660D02*
X020503Y005660D01*
X020503Y005718D02*
X020197Y005718D01*
X020197Y005776D02*
X020503Y005776D01*
X020503Y005835D02*
X020197Y005835D01*
X020197Y005893D02*
X020503Y005893D01*
X020503Y005951D02*
X020197Y005951D01*
X020197Y006010D02*
X020503Y006010D01*
X020503Y006068D02*
X020197Y006068D01*
X020197Y006126D02*
X020503Y006126D01*
X020543Y006185D02*
X020157Y006185D01*
X020145Y006503D02*
X019555Y006503D01*
X019503Y006555D01*
X019503Y007145D01*
X019555Y007197D01*
X020145Y007197D01*
X020197Y007145D01*
X020197Y006555D01*
X020145Y006503D01*
X020177Y006535D02*
X020523Y006535D01*
X020503Y006555D02*
X020555Y006503D01*
X021145Y006503D01*
X021197Y006555D01*
X021197Y007145D01*
X021145Y007197D01*
X020555Y007197D01*
X020503Y007145D01*
X020503Y006555D01*
X020503Y006593D02*
X020197Y006593D01*
X020197Y006652D02*
X020503Y006652D01*
X020503Y006710D02*
X020197Y006710D01*
X020197Y006768D02*
X020503Y006768D01*
X020503Y006827D02*
X020197Y006827D01*
X020197Y006885D02*
X020503Y006885D01*
X020503Y006943D02*
X020197Y006943D01*
X020197Y007002D02*
X020503Y007002D01*
X020503Y007060D02*
X020197Y007060D01*
X020197Y007118D02*
X020503Y007118D01*
X020535Y007177D02*
X020165Y007177D01*
X019535Y007177D02*
X019165Y007177D01*
X019145Y007197D02*
X019197Y007145D01*
X019197Y006555D01*
X019145Y006503D01*
X018555Y006503D01*
X018503Y006555D01*
X018503Y007145D01*
X018555Y007197D01*
X019145Y007197D01*
X019197Y007118D02*
X019503Y007118D01*
X019503Y007060D02*
X019197Y007060D01*
X019197Y007002D02*
X019503Y007002D01*
X019503Y006943D02*
X019197Y006943D01*
X019197Y006885D02*
X019503Y006885D01*
X019503Y006827D02*
X019197Y006827D01*
X019197Y006768D02*
X019503Y006768D01*
X019503Y006710D02*
X019197Y006710D01*
X019197Y006652D02*
X019503Y006652D01*
X019503Y006593D02*
X019197Y006593D01*
X019177Y006535D02*
X019523Y006535D01*
X019543Y006185D02*
X019157Y006185D01*
X019145Y006197D02*
X019197Y006145D01*
X019197Y005555D01*
X019145Y005503D01*
X018555Y005503D01*
X018503Y005555D01*
X018503Y006145D01*
X018555Y006197D01*
X019145Y006197D01*
X019197Y006126D02*
X019503Y006126D01*
X019503Y006068D02*
X019197Y006068D01*
X019197Y006010D02*
X019503Y006010D01*
X019503Y005951D02*
X019197Y005951D01*
X019197Y005893D02*
X019503Y005893D01*
X019503Y005835D02*
X019197Y005835D01*
X019197Y005776D02*
X019503Y005776D01*
X019503Y005718D02*
X019197Y005718D01*
X019197Y005660D02*
X019503Y005660D01*
X019503Y005601D02*
X019197Y005601D01*
X019185Y005543D02*
X019515Y005543D01*
X018515Y005543D02*
X018185Y005543D01*
X018197Y005555D02*
X018197Y006145D01*
X018145Y006197D01*
X017555Y006197D01*
X017503Y006145D01*
X017503Y005555D01*
X017555Y005503D01*
X018145Y005503D01*
X018197Y005555D01*
X018197Y005601D02*
X018503Y005601D01*
X018503Y005660D02*
X018197Y005660D01*
X018197Y005718D02*
X018503Y005718D01*
X018503Y005776D02*
X018197Y005776D01*
X018197Y005835D02*
X018503Y005835D01*
X018503Y005893D02*
X018197Y005893D01*
X018197Y005951D02*
X018503Y005951D01*
X018503Y006010D02*
X018197Y006010D01*
X018197Y006068D02*
X018503Y006068D01*
X018503Y006126D02*
X018197Y006126D01*
X018157Y006185D02*
X018543Y006185D01*
X018523Y006535D02*
X018177Y006535D01*
X018197Y006555D02*
X018197Y007145D01*
X018145Y007197D01*
X017555Y007197D01*
X017503Y007145D01*
X017503Y006555D01*
X017555Y006503D01*
X018145Y006503D01*
X018197Y006555D01*
X018197Y006593D02*
X018503Y006593D01*
X018503Y006652D02*
X018197Y006652D01*
X018197Y006710D02*
X018503Y006710D01*
X018503Y006768D02*
X018197Y006768D01*
X018197Y006827D02*
X018503Y006827D01*
X018503Y006885D02*
X018197Y006885D01*
X018197Y006943D02*
X018503Y006943D01*
X018503Y007002D02*
X018197Y007002D01*
X018197Y007060D02*
X018503Y007060D01*
X018503Y007118D02*
X018197Y007118D01*
X018165Y007177D02*
X018535Y007177D01*
X017535Y007177D02*
X017165Y007177D01*
X017145Y007197D02*
X017197Y007145D01*
X017197Y006555D01*
X017145Y006503D01*
X016555Y006503D01*
X016503Y006555D01*
X016503Y007145D01*
X016555Y007197D01*
X017145Y007197D01*
X017197Y007118D02*
X017503Y007118D01*
X017503Y007060D02*
X017197Y007060D01*
X017197Y007002D02*
X017503Y007002D01*
X017503Y006943D02*
X017197Y006943D01*
X017197Y006885D02*
X017503Y006885D01*
X017503Y006827D02*
X017197Y006827D01*
X017197Y006768D02*
X017503Y006768D01*
X017503Y006710D02*
X017197Y006710D01*
X017197Y006652D02*
X017503Y006652D01*
X017503Y006593D02*
X017197Y006593D01*
X017177Y006535D02*
X017523Y006535D01*
X017543Y006185D02*
X017157Y006185D01*
X017145Y006197D02*
X017197Y006145D01*
X017197Y005555D01*
X017145Y005503D01*
X016555Y005503D01*
X016503Y005555D01*
X016503Y006145D01*
X016555Y006197D01*
X017145Y006197D01*
X017197Y006126D02*
X017503Y006126D01*
X017503Y006068D02*
X017197Y006068D01*
X017197Y006010D02*
X017503Y006010D01*
X017503Y005951D02*
X017197Y005951D01*
X017197Y005893D02*
X017503Y005893D01*
X017503Y005835D02*
X017197Y005835D01*
X017197Y005776D02*
X017503Y005776D01*
X017503Y005718D02*
X017197Y005718D01*
X017197Y005660D02*
X017503Y005660D01*
X017503Y005601D02*
X017197Y005601D01*
X017185Y005543D02*
X017515Y005543D01*
X016515Y005543D02*
X016185Y005543D01*
X016197Y005555D02*
X016197Y006145D01*
X016145Y006197D01*
X015555Y006197D01*
X015503Y006145D01*
X015503Y005555D01*
X015555Y005503D01*
X016145Y005503D01*
X016197Y005555D01*
X016197Y005601D02*
X016503Y005601D01*
X016503Y005660D02*
X016197Y005660D01*
X016197Y005718D02*
X016503Y005718D01*
X016503Y005776D02*
X016197Y005776D01*
X016197Y005835D02*
X016503Y005835D01*
X016503Y005893D02*
X016197Y005893D01*
X016197Y005951D02*
X016503Y005951D01*
X016503Y006010D02*
X016197Y006010D01*
X016197Y006068D02*
X016503Y006068D01*
X016503Y006126D02*
X016197Y006126D01*
X016157Y006185D02*
X016543Y006185D01*
X016523Y006535D02*
X016177Y006535D01*
X016197Y006593D02*
X016503Y006593D01*
X016503Y006652D02*
X016197Y006652D01*
X016197Y006710D02*
X016503Y006710D01*
X016503Y006768D02*
X016197Y006768D01*
X016197Y006827D02*
X016503Y006827D01*
X016503Y006885D02*
X016197Y006885D01*
X016197Y006943D02*
X016503Y006943D01*
X016503Y007002D02*
X016197Y007002D01*
X016197Y007060D02*
X016503Y007060D01*
X016503Y007118D02*
X016197Y007118D01*
X016165Y007177D02*
X016535Y007177D01*
X015535Y007177D02*
X015443Y007177D01*
X015501Y007118D02*
X015503Y007118D01*
X015337Y006943D02*
X015197Y006943D01*
X015197Y006885D02*
X015395Y006885D01*
X015454Y006827D02*
X015197Y006827D01*
X015197Y006768D02*
X015503Y006768D01*
X015503Y006710D02*
X015197Y006710D01*
X015197Y006652D02*
X015503Y006652D01*
X015503Y006593D02*
X015197Y006593D01*
X015177Y006535D02*
X015523Y006535D01*
X015543Y006185D02*
X015157Y006185D01*
X015145Y006197D02*
X015197Y006145D01*
X015197Y005555D01*
X015145Y005503D01*
X014555Y005503D01*
X014503Y005555D01*
X014503Y006145D01*
X014555Y006197D01*
X015145Y006197D01*
X015197Y006126D02*
X015503Y006126D01*
X015503Y006068D02*
X015197Y006068D01*
X015197Y006010D02*
X015503Y006010D01*
X015503Y005951D02*
X015197Y005951D01*
X015197Y005893D02*
X015503Y005893D01*
X015503Y005835D02*
X015197Y005835D01*
X015197Y005776D02*
X015503Y005776D01*
X015503Y005718D02*
X015197Y005718D01*
X015197Y005660D02*
X015503Y005660D01*
X015503Y005601D02*
X015197Y005601D01*
X015185Y005543D02*
X015515Y005543D01*
X014515Y005543D02*
X014185Y005543D01*
X014197Y005555D02*
X014197Y006145D01*
X014145Y006197D01*
X013555Y006197D01*
X013503Y006145D01*
X013503Y005555D01*
X013555Y005503D01*
X014145Y005503D01*
X014197Y005555D01*
X014197Y005601D02*
X014503Y005601D01*
X014503Y005660D02*
X014197Y005660D01*
X014197Y005718D02*
X014503Y005718D01*
X014503Y005776D02*
X014197Y005776D01*
X014197Y005835D02*
X014503Y005835D01*
X014503Y005893D02*
X014197Y005893D01*
X014197Y005951D02*
X014503Y005951D01*
X014503Y006010D02*
X014197Y006010D01*
X014197Y006068D02*
X014503Y006068D01*
X014503Y006126D02*
X014197Y006126D01*
X014157Y006185D02*
X014543Y006185D01*
X014523Y006535D02*
X014177Y006535D01*
X014197Y006555D02*
X014145Y006503D01*
X013555Y006503D01*
X013503Y006555D01*
X013503Y007145D01*
X013555Y007197D01*
X014145Y007197D01*
X014197Y007145D01*
X014197Y006555D01*
X014197Y006593D02*
X014503Y006593D01*
X014503Y006652D02*
X014197Y006652D01*
X014197Y006710D02*
X014503Y006710D01*
X014503Y006768D02*
X014197Y006768D01*
X014197Y006827D02*
X014503Y006827D01*
X014503Y006885D02*
X014197Y006885D01*
X014197Y006943D02*
X014503Y006943D01*
X014503Y007002D02*
X014197Y007002D01*
X014197Y007060D02*
X014503Y007060D01*
X014503Y007118D02*
X014197Y007118D01*
X014165Y007177D02*
X014535Y007177D01*
X015045Y007235D02*
X013362Y007235D01*
X013535Y007177D02*
X013165Y007177D01*
X013145Y007197D02*
X013197Y007145D01*
X013197Y006555D01*
X013145Y006503D01*
X012555Y006503D01*
X012503Y006555D01*
X012503Y007145D01*
X012555Y007197D01*
X013145Y007197D01*
X013197Y007118D02*
X013503Y007118D01*
X013503Y007060D02*
X013197Y007060D01*
X013197Y007002D02*
X013503Y007002D01*
X013503Y006943D02*
X013197Y006943D01*
X013197Y006885D02*
X013503Y006885D01*
X013503Y006827D02*
X013197Y006827D01*
X013197Y006768D02*
X013503Y006768D01*
X013503Y006710D02*
X013197Y006710D01*
X013197Y006652D02*
X013503Y006652D01*
X013503Y006593D02*
X013197Y006593D01*
X013177Y006535D02*
X013523Y006535D01*
X013543Y006185D02*
X013157Y006185D01*
X013145Y006197D02*
X013197Y006145D01*
X013197Y005555D01*
X013145Y005503D01*
X012555Y005503D01*
X012503Y005555D01*
X012503Y006145D01*
X012555Y006197D01*
X013145Y006197D01*
X013197Y006126D02*
X013503Y006126D01*
X013503Y006068D02*
X013197Y006068D01*
X013197Y006010D02*
X013503Y006010D01*
X013503Y005951D02*
X013197Y005951D01*
X013197Y005893D02*
X013503Y005893D01*
X013503Y005835D02*
X013197Y005835D01*
X013197Y005776D02*
X013503Y005776D01*
X013503Y005718D02*
X013197Y005718D01*
X013197Y005660D02*
X013503Y005660D01*
X013503Y005601D02*
X013197Y005601D01*
X013185Y005543D02*
X013515Y005543D01*
X012515Y005543D02*
X012185Y005543D01*
X012197Y005555D02*
X012197Y006145D01*
X012145Y006197D01*
X011555Y006197D01*
X011503Y006145D01*
X011503Y005555D01*
X011555Y005503D01*
X012145Y005503D01*
X012197Y005555D01*
X012197Y005601D02*
X012503Y005601D01*
X012503Y005660D02*
X012197Y005660D01*
X012197Y005718D02*
X012503Y005718D01*
X012503Y005776D02*
X012197Y005776D01*
X012197Y005835D02*
X012503Y005835D01*
X012503Y005893D02*
X012197Y005893D01*
X012197Y005951D02*
X012503Y005951D01*
X012503Y006010D02*
X012197Y006010D01*
X012197Y006068D02*
X012503Y006068D01*
X012503Y006126D02*
X012197Y006126D01*
X012157Y006185D02*
X012543Y006185D01*
X012523Y006535D02*
X012177Y006535D01*
X012197Y006555D02*
X012145Y006503D01*
X011555Y006503D01*
X011503Y006555D01*
X011503Y007145D01*
X011555Y007197D01*
X012145Y007197D01*
X012197Y007145D01*
X012197Y006555D01*
X012197Y006593D02*
X012503Y006593D01*
X012503Y006652D02*
X012197Y006652D01*
X012197Y006710D02*
X012503Y006710D01*
X012503Y006768D02*
X012197Y006768D01*
X012197Y006827D02*
X012503Y006827D01*
X012503Y006885D02*
X012197Y006885D01*
X012197Y006943D02*
X012503Y006943D01*
X012503Y007002D02*
X012197Y007002D01*
X012197Y007060D02*
X012503Y007060D01*
X012503Y007118D02*
X012197Y007118D01*
X012165Y007177D02*
X012535Y007177D01*
X011535Y007177D02*
X011165Y007177D01*
X011145Y007197D02*
X011197Y007145D01*
X011197Y006555D01*
X011145Y006503D01*
X010555Y006503D01*
X010503Y006555D01*
X010503Y007145D01*
X010555Y007197D01*
X011145Y007197D01*
X011197Y007118D02*
X011503Y007118D01*
X011503Y007060D02*
X011197Y007060D01*
X011197Y007002D02*
X011503Y007002D01*
X011503Y006943D02*
X011197Y006943D01*
X011197Y006885D02*
X011503Y006885D01*
X011503Y006827D02*
X011197Y006827D01*
X011197Y006768D02*
X011503Y006768D01*
X011503Y006710D02*
X011197Y006710D01*
X011197Y006652D02*
X011503Y006652D01*
X011503Y006593D02*
X011197Y006593D01*
X011177Y006535D02*
X011523Y006535D01*
X011543Y006185D02*
X011157Y006185D01*
X011145Y006197D02*
X011197Y006145D01*
X011197Y005555D01*
X011145Y005503D01*
X010555Y005503D01*
X010503Y005555D01*
X010503Y006145D01*
X010555Y006197D01*
X011145Y006197D01*
X011197Y006126D02*
X011503Y006126D01*
X011503Y006068D02*
X011197Y006068D01*
X011197Y006010D02*
X011503Y006010D01*
X011503Y005951D02*
X011197Y005951D01*
X011197Y005893D02*
X011503Y005893D01*
X011503Y005835D02*
X011197Y005835D01*
X011197Y005776D02*
X011503Y005776D01*
X011503Y005718D02*
X011197Y005718D01*
X011197Y005660D02*
X011503Y005660D01*
X011503Y005601D02*
X011197Y005601D01*
X011185Y005543D02*
X011515Y005543D01*
X010515Y005543D02*
X010185Y005543D01*
X010197Y005555D02*
X010197Y006145D01*
X010145Y006197D01*
X009555Y006197D01*
X009503Y006145D01*
X009503Y005555D01*
X009555Y005503D01*
X010145Y005503D01*
X010197Y005555D01*
X010197Y005601D02*
X010503Y005601D01*
X010503Y005660D02*
X010197Y005660D01*
X010197Y005718D02*
X010503Y005718D01*
X010503Y005776D02*
X010197Y005776D01*
X010197Y005835D02*
X010503Y005835D01*
X010503Y005893D02*
X010197Y005893D01*
X010197Y005951D02*
X010503Y005951D01*
X010503Y006010D02*
X010197Y006010D01*
X010197Y006068D02*
X010503Y006068D01*
X010503Y006126D02*
X010197Y006126D01*
X010157Y006185D02*
X010543Y006185D01*
X010523Y006535D02*
X010177Y006535D01*
X010197Y006555D02*
X010145Y006503D01*
X009555Y006503D01*
X009503Y006555D01*
X009503Y007145D01*
X009555Y007197D01*
X010145Y007197D01*
X010197Y007145D01*
X010197Y006555D01*
X010197Y006593D02*
X010503Y006593D01*
X010503Y006652D02*
X010197Y006652D01*
X010197Y006710D02*
X010503Y006710D01*
X010503Y006768D02*
X010197Y006768D01*
X010197Y006827D02*
X010503Y006827D01*
X010503Y006885D02*
X010197Y006885D01*
X010197Y006943D02*
X010503Y006943D01*
X010503Y007002D02*
X010197Y007002D01*
X010197Y007060D02*
X010503Y007060D01*
X010503Y007118D02*
X010197Y007118D01*
X010165Y007177D02*
X010535Y007177D01*
X009535Y007177D02*
X009165Y007177D01*
X009145Y007197D02*
X009197Y007145D01*
X009197Y006555D01*
X009145Y006503D01*
X008555Y006503D01*
X008503Y006555D01*
X008503Y007145D01*
X008555Y007197D01*
X009145Y007197D01*
X009197Y007118D02*
X009503Y007118D01*
X009503Y007060D02*
X009197Y007060D01*
X009197Y007002D02*
X009503Y007002D01*
X009503Y006943D02*
X009197Y006943D01*
X009197Y006885D02*
X009503Y006885D01*
X009503Y006827D02*
X009197Y006827D01*
X009197Y006768D02*
X009503Y006768D01*
X009503Y006710D02*
X009197Y006710D01*
X009197Y006652D02*
X009503Y006652D01*
X009503Y006593D02*
X009197Y006593D01*
X009177Y006535D02*
X009523Y006535D01*
X009543Y006185D02*
X009157Y006185D01*
X009145Y006197D02*
X009197Y006145D01*
X009197Y005555D01*
X009145Y005503D01*
X008555Y005503D01*
X008503Y005555D01*
X008503Y006145D01*
X008555Y006197D01*
X009145Y006197D01*
X009197Y006126D02*
X009503Y006126D01*
X009503Y006068D02*
X009197Y006068D01*
X009197Y006010D02*
X009503Y006010D01*
X009503Y005951D02*
X009197Y005951D01*
X009197Y005893D02*
X009503Y005893D01*
X009503Y005835D02*
X009197Y005835D01*
X009197Y005776D02*
X009503Y005776D01*
X009503Y005718D02*
X009197Y005718D01*
X009197Y005660D02*
X009503Y005660D01*
X009503Y005601D02*
X009197Y005601D01*
X009185Y005543D02*
X009515Y005543D01*
X008515Y005543D02*
X008185Y005543D01*
X008197Y005601D02*
X008503Y005601D01*
X008503Y005660D02*
X008197Y005660D01*
X008197Y005718D02*
X008503Y005718D01*
X008503Y005776D02*
X008197Y005776D01*
X008197Y005835D02*
X008503Y005835D01*
X008503Y005893D02*
X008197Y005893D01*
X008197Y005951D02*
X008503Y005951D01*
X008503Y006010D02*
X008197Y006010D01*
X008197Y006068D02*
X008503Y006068D01*
X008503Y006126D02*
X008197Y006126D01*
X008157Y006185D02*
X008543Y006185D01*
X008523Y006535D02*
X008177Y006535D01*
X008197Y006593D02*
X008503Y006593D01*
X008503Y006652D02*
X008197Y006652D01*
X008197Y006710D02*
X008503Y006710D01*
X008503Y006768D02*
X008197Y006768D01*
X008197Y006827D02*
X008503Y006827D01*
X008503Y006885D02*
X008197Y006885D01*
X008197Y006943D02*
X008503Y006943D01*
X008503Y007002D02*
X008197Y007002D01*
X008197Y007060D02*
X008503Y007060D01*
X008503Y007118D02*
X008197Y007118D01*
X008165Y007177D02*
X008535Y007177D01*
X007503Y006827D02*
X006880Y006827D01*
X006880Y006768D02*
X006820Y006768D01*
X006820Y006710D02*
X006880Y006710D01*
X006880Y006652D02*
X006820Y006652D01*
X006820Y006593D02*
X006880Y006593D01*
X006880Y006535D02*
X006820Y006535D01*
X006820Y006477D02*
X006880Y006477D01*
X006880Y006185D02*
X006820Y006185D01*
X006820Y006126D02*
X006880Y006126D01*
X006880Y006068D02*
X006820Y006068D01*
X006820Y006010D02*
X006880Y006010D01*
X006880Y005951D02*
X006820Y005951D01*
X006820Y005776D02*
X006880Y005776D01*
X006880Y005718D02*
X006820Y005718D01*
X006820Y005660D02*
X006880Y005660D01*
X006880Y005601D02*
X006820Y005601D01*
X006820Y005543D02*
X006880Y005543D01*
X006880Y005485D02*
X006820Y005485D01*
X007237Y005893D02*
X007503Y005893D01*
X007503Y005951D02*
X007237Y005951D01*
X007237Y006010D02*
X007503Y006010D01*
X007503Y006068D02*
X007237Y006068D01*
X007237Y006126D02*
X007503Y006126D01*
X007543Y006185D02*
X007213Y006185D01*
X015093Y007527D02*
X032904Y007527D01*
X032874Y007468D02*
X015151Y007468D01*
X015210Y007410D02*
X032845Y007410D01*
X032815Y007352D02*
X015268Y007352D01*
X015220Y007060D02*
X015197Y007060D01*
X015197Y007002D02*
X015279Y007002D01*
X021165Y007177D02*
X021535Y007177D01*
X021555Y007197D02*
X021503Y007145D01*
X021503Y006555D01*
X021555Y006503D01*
X022145Y006503D01*
X022197Y006555D01*
X022197Y007145D01*
X022145Y007197D01*
X021555Y007197D01*
X021503Y007118D02*
X021197Y007118D01*
X021197Y007060D02*
X021503Y007060D01*
X021503Y007002D02*
X021197Y007002D01*
X021197Y006943D02*
X021503Y006943D01*
X021503Y006885D02*
X021197Y006885D01*
X021197Y006827D02*
X021503Y006827D01*
X021503Y006768D02*
X021197Y006768D01*
X021197Y006710D02*
X021503Y006710D01*
X021503Y006652D02*
X021197Y006652D01*
X021197Y006593D02*
X021503Y006593D01*
X021523Y006535D02*
X021177Y006535D01*
X021157Y006185D02*
X021543Y006185D01*
X021555Y006197D02*
X021503Y006145D01*
X021503Y005555D01*
X021555Y005503D01*
X022145Y005503D01*
X022197Y005555D01*
X022197Y006145D01*
X022145Y006197D01*
X021555Y006197D01*
X021503Y006126D02*
X021197Y006126D01*
X021197Y006068D02*
X021503Y006068D01*
X021503Y006010D02*
X021197Y006010D01*
X021197Y005951D02*
X021503Y005951D01*
X021503Y005893D02*
X021197Y005893D01*
X021197Y005835D02*
X021503Y005835D01*
X021503Y005776D02*
X021197Y005776D01*
X021197Y005718D02*
X021503Y005718D01*
X021503Y005660D02*
X021197Y005660D01*
X021197Y005601D02*
X021503Y005601D01*
X021515Y005543D02*
X021185Y005543D01*
X022185Y005543D02*
X022515Y005543D01*
X022503Y005555D02*
X022555Y005503D01*
X023145Y005503D01*
X023197Y005555D01*
X023197Y006145D01*
X023145Y006197D01*
X022555Y006197D01*
X022503Y006145D01*
X022503Y005555D01*
X022503Y005601D02*
X022197Y005601D01*
X022197Y005660D02*
X022503Y005660D01*
X022503Y005718D02*
X022197Y005718D01*
X022197Y005776D02*
X022503Y005776D01*
X022503Y005835D02*
X022197Y005835D01*
X022197Y005893D02*
X022503Y005893D01*
X022503Y005951D02*
X022197Y005951D01*
X022197Y006010D02*
X022503Y006010D01*
X022503Y006068D02*
X022197Y006068D01*
X022197Y006126D02*
X022503Y006126D01*
X022543Y006185D02*
X022157Y006185D01*
X022177Y006535D02*
X022523Y006535D01*
X022503Y006555D02*
X022555Y006503D01*
X023145Y006503D01*
X023197Y006555D01*
X023197Y007145D01*
X023145Y007197D01*
X022555Y007197D01*
X022503Y007145D01*
X022503Y006555D01*
X022503Y006593D02*
X022197Y006593D01*
X022197Y006652D02*
X022503Y006652D01*
X022503Y006710D02*
X022197Y006710D01*
X022197Y006768D02*
X022503Y006768D01*
X022503Y006827D02*
X022197Y006827D01*
X022197Y006885D02*
X022503Y006885D01*
X022503Y006943D02*
X022197Y006943D01*
X022197Y007002D02*
X022503Y007002D01*
X022503Y007060D02*
X022197Y007060D01*
X022197Y007118D02*
X022503Y007118D01*
X022535Y007177D02*
X022165Y007177D01*
X023165Y007177D02*
X023535Y007177D01*
X023555Y007197D02*
X023503Y007145D01*
X023503Y006555D01*
X023555Y006503D01*
X024145Y006503D01*
X024197Y006555D01*
X024197Y007145D01*
X024145Y007197D01*
X023555Y007197D01*
X023503Y007118D02*
X023197Y007118D01*
X023197Y007060D02*
X023503Y007060D01*
X023503Y007002D02*
X023197Y007002D01*
X023197Y006943D02*
X023503Y006943D01*
X023503Y006885D02*
X023197Y006885D01*
X023197Y006827D02*
X023503Y006827D01*
X023503Y006768D02*
X023197Y006768D01*
X023197Y006710D02*
X023503Y006710D01*
X023503Y006652D02*
X023197Y006652D01*
X023197Y006593D02*
X023503Y006593D01*
X023523Y006535D02*
X023177Y006535D01*
X023157Y006185D02*
X023543Y006185D01*
X023555Y006197D02*
X023503Y006145D01*
X023503Y005555D01*
X023555Y005503D01*
X024145Y005503D01*
X024197Y005555D01*
X024197Y006145D01*
X024145Y006197D01*
X023555Y006197D01*
X023503Y006126D02*
X023197Y006126D01*
X023197Y006068D02*
X023503Y006068D01*
X023503Y006010D02*
X023197Y006010D01*
X023197Y005951D02*
X023503Y005951D01*
X023503Y005893D02*
X023197Y005893D01*
X023197Y005835D02*
X023503Y005835D01*
X023503Y005776D02*
X023197Y005776D01*
X023197Y005718D02*
X023503Y005718D01*
X023503Y005660D02*
X023197Y005660D01*
X023197Y005601D02*
X023503Y005601D01*
X023515Y005543D02*
X023185Y005543D01*
X024185Y005543D02*
X024515Y005543D01*
X024503Y005555D02*
X024555Y005503D01*
X025145Y005503D01*
X025197Y005555D01*
X025197Y006145D01*
X025145Y006197D01*
X024555Y006197D01*
X024503Y006145D01*
X024503Y005555D01*
X024503Y005601D02*
X024197Y005601D01*
X024197Y005660D02*
X024503Y005660D01*
X024503Y005718D02*
X024197Y005718D01*
X024197Y005776D02*
X024503Y005776D01*
X024503Y005835D02*
X024197Y005835D01*
X024197Y005893D02*
X024503Y005893D01*
X024503Y005951D02*
X024197Y005951D01*
X024197Y006010D02*
X024503Y006010D01*
X024503Y006068D02*
X024197Y006068D01*
X024197Y006126D02*
X024503Y006126D01*
X024543Y006185D02*
X024157Y006185D01*
X024177Y006535D02*
X024523Y006535D01*
X024503Y006555D02*
X024555Y006503D01*
X025145Y006503D01*
X025197Y006555D01*
X025197Y007145D01*
X025145Y007197D01*
X024555Y007197D01*
X024503Y007145D01*
X024503Y006555D01*
X024503Y006593D02*
X024197Y006593D01*
X024197Y006652D02*
X024503Y006652D01*
X024503Y006710D02*
X024197Y006710D01*
X024197Y006768D02*
X024503Y006768D01*
X024503Y006827D02*
X024197Y006827D01*
X024197Y006885D02*
X024503Y006885D01*
X024503Y006943D02*
X024197Y006943D01*
X024197Y007002D02*
X024503Y007002D01*
X024503Y007060D02*
X024197Y007060D01*
X024197Y007118D02*
X024503Y007118D01*
X024535Y007177D02*
X024165Y007177D01*
X025165Y007177D02*
X025535Y007177D01*
X025555Y007197D02*
X025503Y007145D01*
X025503Y006555D01*
X025555Y006503D01*
X026145Y006503D01*
X026197Y006555D01*
X026197Y007145D01*
X026145Y007197D01*
X025555Y007197D01*
X025503Y007118D02*
X025197Y007118D01*
X025197Y007060D02*
X025503Y007060D01*
X025503Y007002D02*
X025197Y007002D01*
X025197Y006943D02*
X025503Y006943D01*
X025503Y006885D02*
X025197Y006885D01*
X025197Y006827D02*
X025503Y006827D01*
X025503Y006768D02*
X025197Y006768D01*
X025197Y006710D02*
X025503Y006710D01*
X025503Y006652D02*
X025197Y006652D01*
X025197Y006593D02*
X025503Y006593D01*
X025523Y006535D02*
X025177Y006535D01*
X025157Y006185D02*
X025543Y006185D01*
X025555Y006197D02*
X025503Y006145D01*
X025503Y005555D01*
X025555Y005503D01*
X026145Y005503D01*
X026197Y005555D01*
X026197Y006145D01*
X026145Y006197D01*
X025555Y006197D01*
X025503Y006126D02*
X025197Y006126D01*
X025197Y006068D02*
X025503Y006068D01*
X025503Y006010D02*
X025197Y006010D01*
X025197Y005951D02*
X025503Y005951D01*
X025503Y005893D02*
X025197Y005893D01*
X025197Y005835D02*
X025503Y005835D01*
X025503Y005776D02*
X025197Y005776D01*
X025197Y005718D02*
X025503Y005718D01*
X025503Y005660D02*
X025197Y005660D01*
X025197Y005601D02*
X025503Y005601D01*
X025515Y005543D02*
X025185Y005543D01*
X026185Y005543D02*
X026515Y005543D01*
X026503Y005601D02*
X026197Y005601D01*
X026197Y005660D02*
X026503Y005660D01*
X026503Y005718D02*
X026197Y005718D01*
X026197Y005776D02*
X026503Y005776D01*
X026503Y005835D02*
X026197Y005835D01*
X026197Y005893D02*
X026503Y005893D01*
X026503Y005951D02*
X026197Y005951D01*
X026197Y006010D02*
X026503Y006010D01*
X026503Y006068D02*
X026197Y006068D01*
X026197Y006126D02*
X026503Y006126D01*
X026543Y006185D02*
X026157Y006185D01*
X026177Y006535D02*
X026523Y006535D01*
X026503Y006593D02*
X026197Y006593D01*
X026197Y006652D02*
X026503Y006652D01*
X026503Y006710D02*
X026197Y006710D01*
X026197Y006768D02*
X026503Y006768D01*
X026503Y006827D02*
X026197Y006827D01*
X026197Y006885D02*
X026503Y006885D01*
X026503Y006943D02*
X026197Y006943D01*
X026197Y007002D02*
X026503Y007002D01*
X026503Y007060D02*
X026197Y007060D01*
X026197Y007118D02*
X026503Y007118D01*
X026535Y007177D02*
X026165Y007177D01*
X027820Y006768D02*
X027880Y006768D01*
X027880Y006710D02*
X027820Y006710D01*
X027820Y006652D02*
X027880Y006652D01*
X027880Y006593D02*
X027820Y006593D01*
X027820Y006535D02*
X027880Y006535D01*
X027880Y006477D02*
X027820Y006477D01*
X027820Y006185D02*
X027880Y006185D01*
X027880Y006126D02*
X027820Y006126D01*
X027820Y006068D02*
X027880Y006068D01*
X027880Y006010D02*
X027820Y006010D01*
X027820Y005951D02*
X027880Y005951D01*
D14*
X015640Y002250D02*
X011680Y002250D01*
X009520Y004410D01*
D15*
X009520Y004410D03*
X015640Y002250D03*
X013240Y007410D03*
D16*
X015040Y007410D01*
X015520Y006930D01*
X015760Y006930D01*
X015850Y006850D01*
M02*
