%
M48
M72
T01C0.0200
T02C0.0315
T03C0.0320
%
T01
X6847Y4660
X15007Y8020
X15727Y7900
X15727Y7300
X30127Y6460
X32407Y7180
T02
X7117Y1350
X8117Y1350
X9117Y1350
X10117Y1350
X11117Y1350
X12117Y1350
X13117Y1350
X14117Y1350
X15117Y1350
X16117Y1350
X17117Y1350
X18117Y1350
X19117Y1350
X20117Y1350
X21117Y1350
X22117Y1350
X23117Y1350
X24117Y1350
X25117Y1350
X26117Y1350
X27117Y1350
X28117Y1350
X29117Y1350
X29117Y2350
X28117Y2350
X27117Y2350
X26117Y2350
X25117Y2350
X24117Y2350
X23117Y2350
X22117Y2350
X21117Y2350
X20117Y2350
X19117Y2350
X18117Y2350
X17117Y2350
X16117Y2350
X15117Y2350
X14117Y2350
X13117Y2350
X12117Y2350
X11117Y2350
X10117Y2350
X9117Y2350
X8117Y2350
X7117Y2350
X7117Y19350
X8117Y19350
X9117Y19350
X10117Y19350
X11117Y19350
X12117Y19350
X13117Y19350
X14117Y19350
X15117Y19350
X16117Y19350
X17117Y19350
X18117Y19350
X19117Y19350
X20117Y19350
X21117Y19350
X22117Y19350
X23117Y19350
X24117Y19350
X25117Y19350
X26117Y19350
X27117Y19350
X28117Y19350
X29117Y19350
X29117Y20350
X28117Y20350
X27117Y20350
X26117Y20350
X25117Y20350
X24117Y20350
X23117Y20350
X22117Y20350
X21117Y20350
X20117Y20350
X19117Y20350
X18117Y20350
X17117Y20350
X16117Y20350
X15117Y20350
X14117Y20350
X13117Y20350
X12117Y20350
X11117Y20350
X10117Y20350
X9117Y20350
X8117Y20350
X7117Y20350
T03
X4367Y6100
X4367Y5100
X1367Y5100
X1367Y6100
M30
